fontCallback.success({"glyphs":{"S":{"x_min":2.859375,"x_max":786.109375,"ha":836,"o":"m 343 450 q 170 555 212 504 q 129 691 129 606 q 238 936 129 841 q 522 1031 348 1031 q 658 1017 592 1031 q 786 975 724 1003 l 747 782 q 639 845 701 824 q 502 867 577 867 q 372 828 422 867 q 322 730 322 790 q 446 617 322 673 l 451 615 l 530 580 q 675 474 629 536 q 721 322 721 412 q 611 73 721 166 q 316 -20 502 -20 q 164 -2 242 -20 q 2 51 86 15 l 42 258 q 180 174 108 203 q 324 146 252 146 q 466 185 414 146 q 518 293 518 225 q 494 366 518 335 q 423 416 470 396 l 343 450 "},"Â¦":{"x_min":340,"x_max":494,"ha":836,"o":"m 494 277 l 494 -237 l 340 -237 l 340 277 l 494 277 m 494 972 l 494 458 l 340 458 l 340 972 l 494 972 "},"/":{"x_min":0,"x_max":729.03125,"ha":836,"o":"m 577 1013 l 729 1013 l 149 -129 l 0 -129 l 577 1013 "},"y":{"x_min":-61.03125,"x_max":852.453125,"ha":836,"o":"m 373 -82 q 242 -252 297 -216 q 101 -288 187 -288 l -61 -288 l -30 -137 l 48 -137 q 141 -116 107 -137 q 216 -20 175 -96 l 242 29 l 95 759 l 297 759 l 383 284 l 642 759 l 852 759 l 373 -82 "},"â‰ˆ":{"x_min":60,"x_max":777,"ha":836,"o":"m 777 408 l 777 250 q 677 190 726 209 q 575 172 629 172 q 437 206 514 172 q 415 216 422 213 q 328 247 363 239 q 258 256 293 256 q 158 236 205 256 q 60 173 110 216 l 60 328 q 162 388 112 370 q 268 407 211 407 q 421 369 333 407 l 422 369 q 443 359 429 365 q 586 323 521 323 q 680 343 633 323 q 777 408 727 364 m 777 691 l 777 532 q 677 474 726 493 q 575 456 629 456 q 437 490 514 456 q 415 499 422 497 q 328 530 363 522 q 258 539 293 539 q 158 519 205 539 q 60 457 110 499 l 60 612 q 162 671 112 652 q 268 690 211 690 q 421 653 333 690 l 422 653 q 442 643 429 649 q 586 607 521 607 q 680 627 634 607 q 777 691 726 647 "},"Ã�":{"x_min":-76.65625,"x_max":775.328125,"ha":836,"o":"m 493 826 l 307 415 l 493 415 l 493 826 m 394 1012 l 677 1012 l 677 0 l 512 0 l 512 250 l 235 250 l 126 0 l -76 0 l 394 1012 m 584 1288 l 775 1288 l 558 1109 l 417 1109 l 584 1288 "},"g":{"x_min":12.09375,"x_max":806.453125,"ha":836,"o":"m 352 166 q 487 255 430 166 q 544 472 544 345 q 516 578 544 540 q 439 616 488 616 q 305 526 362 616 q 249 310 249 436 q 276 203 249 241 q 352 166 303 166 m 668 56 q 539 -209 632 -131 q 260 -288 445 -288 q 132 -277 194 -288 q 12 -247 71 -267 l 48 -68 q 155 -113 99 -98 q 270 -129 211 -129 q 402 -89 355 -129 q 466 33 450 -50 l 484 123 q 395 38 447 67 q 277 10 342 10 q 108 80 171 10 q 46 272 46 151 q 74 462 46 366 q 152 631 102 558 q 267 740 199 701 q 407 780 336 780 q 524 742 478 780 q 584 635 569 705 l 607 759 l 806 759 l 668 56 "},"Â²":{"x_min":176.765625,"x_max":698,"ha":836,"o":"m 349 551 l 646 551 l 627 453 l 176 453 l 196 548 q 292 617 231 573 q 564 873 564 811 q 539 920 564 903 q 469 937 515 937 q 376 924 427 937 q 273 888 325 912 l 294 998 q 395 1022 346 1014 q 495 1031 445 1031 q 645 994 592 1031 q 698 890 698 957 q 419 600 698 795 q 349 551 373 568 "},"â€“":{"x_min":-40.015625,"x_max":829.40625,"ha":836,"o":"m -6 468 l 829 468 l 796 301 l -40 301 l -6 468 "},"Ã«":{"x_min":52,"x_max":784,"ha":836,"o":"m 674 36 q 540 -5 609 8 q 395 -20 470 -20 q 139 60 227 -20 q 52 295 52 140 q 81 480 52 391 q 165 635 111 570 q 301 742 222 705 q 471 779 380 779 q 698 697 613 779 q 784 481 784 616 q 779 411 784 451 q 765 315 775 371 l 250 315 q 247 293 248 303 q 246 272 246 283 q 291 171 246 205 q 425 137 337 137 q 572 158 499 137 q 708 219 646 179 l 674 36 m 595 464 q 598 482 597 473 q 600 499 600 491 q 565 590 600 557 q 470 624 530 624 q 354 584 402 624 q 278 464 305 544 l 595 464 m 583 1075 l 744 1075 l 710 908 l 551 908 l 583 1075 m 314 1075 l 475 1075 l 442 908 l 282 908 l 314 1075 "},"Æ’":{"x_min":8,"x_max":781,"ha":836,"o":"m 781 1020 l 781 863 q 725 889 753 880 q 672 898 697 898 q 574 857 608 898 q 527 728 539 816 l 510 600 l 687 600 l 687 451 l 491 451 l 427 -32 q 341 -222 410 -155 q 165 -290 273 -290 q 84 -281 123 -290 q 8 -255 45 -273 l 8 -96 q 64 -123 37 -114 q 117 -133 91 -133 q 217 -91 181 -133 q 264 36 253 -50 l 318 451 l 148 451 l 148 600 l 338 600 l 364 798 q 450 987 381 920 q 627 1055 518 1055 q 705 1046 667 1055 q 781 1020 743 1038 "},"ÃŽ":{"x_min":18.3125,"x_max":817.875,"ha":836,"o":"m 180 837 l 214 1013 l 817 1013 l 783 837 l 581 837 l 454 176 l 655 176 l 620 0 l 18 0 l 52 176 l 254 176 l 381 837 l 180 837 m 430 1288 l 666 1288 l 769 1109 l 654 1109 l 543 1218 l 387 1109 l 265 1109 l 430 1288 "},"e":{"x_min":52,"x_max":784,"ha":836,"o":"m 674 36 q 540 -5 609 8 q 395 -20 470 -20 q 139 60 227 -20 q 52 295 52 140 q 81 480 52 391 q 165 635 111 570 q 301 742 222 705 q 471 779 380 779 q 698 697 613 779 q 784 481 784 616 q 779 411 784 451 q 765 315 775 371 l 250 315 q 247 293 248 303 q 246 272 246 283 q 291 171 246 205 q 425 137 337 137 q 572 158 499 137 q 708 219 646 179 l 674 36 m 595 464 q 598 482 597 473 q 600 499 600 491 q 565 590 600 557 q 470 624 530 624 q 354 584 402 624 q 278 464 305 544 l 595 464 "},"Ãƒ":{"x_min":-76.65625,"x_max":794.328125,"ha":836,"o":"m 493 826 l 307 415 l 493 415 l 493 826 m 394 1012 l 677 1012 l 677 0 l 512 0 l 512 250 l 235 250 l 126 0 l -76 0 l 394 1012 m 530 1143 l 497 1168 q 468 1185 480 1181 q 445 1190 457 1190 q 403 1168 421 1190 q 379 1109 385 1146 l 286 1109 q 347 1242 303 1195 q 457 1289 392 1289 q 504 1280 482 1289 q 550 1254 526 1272 l 586 1227 q 608 1213 596 1218 q 632 1209 621 1209 q 676 1229 658 1209 q 701 1289 693 1250 l 794 1289 q 732 1155 776 1202 q 624 1109 688 1109 q 577 1116 599 1109 q 530 1143 556 1123 "},"J":{"x_min":-13.5625,"x_max":781.921875,"ha":836,"o":"m -13 52 l 30 285 q 143 188 83 220 q 273 156 203 156 q 390 192 351 156 q 446 324 428 229 l 547 836 l 302 836 l 337 1012 l 781 1012 l 646 324 q 596 150 624 209 q 523 55 568 92 q 416 -1 478 17 q 278 -20 354 -20 q 130 -2 202 -20 q -13 52 57 15 "},"Â»":{"x_min":55.609375,"x_max":751.40625,"ha":836,"o":"m 176 718 l 442 451 l 425 362 l 55 95 l 86 257 l 304 406 l 145 556 l 176 718 m 484 718 l 751 451 l 733 362 l 364 95 l 394 257 l 612 406 l 454 556 l 484 718 "},"âˆ†":{"x_min":-4.0625,"x_max":841.609375,"ha":836,"o":"m 604 150 l 417 706 l 231 150 l 604 150 m 330 965 l 505 965 l 841 0 l -4 0 l 330 965 "},"Â©":{"x_min":0,"x_max":836,"ha":836,"o":"m 574 711 l 574 598 q 508 628 539 619 q 445 638 477 638 q 343 602 379 638 q 307 503 307 567 q 342 403 307 438 q 445 369 378 369 q 513 378 481 369 q 574 408 546 388 l 574 294 q 501 277 537 283 q 431 271 465 271 q 248 334 317 271 q 180 502 180 397 q 248 671 180 608 q 431 735 317 735 q 504 729 469 735 q 574 711 540 723 m 417 922 q 577 891 503 922 q 712 799 651 860 q 804 663 773 738 q 836 503 836 588 q 805 344 836 418 q 712 208 774 270 q 577 115 650 146 q 417 85 503 85 q 259 115 332 85 q 123 208 185 146 q 30 344 61 270 q 0 503 0 418 q 31 663 0 588 q 123 799 62 738 q 258 891 184 860 q 417 922 332 922 m 417 834 q 292 809 350 834 q 185 736 235 785 q 113 629 137 688 q 89 502 89 571 q 113 378 89 436 q 185 272 137 321 q 292 198 234 223 q 417 174 350 174 q 543 198 485 174 q 649 272 602 223 q 722 379 698 321 q 747 503 747 436 q 722 629 747 571 q 649 736 698 688 q 543 809 600 785 q 417 834 486 834 "},"Ë˜":{"x_min":302,"x_max":759.421875,"ha":836,"o":"m 302 1089 l 400 1089 l 400 1080 q 429 1014 400 1038 q 511 990 459 990 q 605 1016 566 990 q 662 1089 645 1042 l 759 1089 q 672 940 739 992 q 502 888 605 888 q 351 932 401 888 q 302 1066 302 976 l 302 1089 "},"â‰¥":{"x_min":60,"x_max":777,"ha":836,"o":"m 60 642 l 60 808 l 777 581 l 777 422 l 60 194 l 60 359 l 561 500 l 60 642 m 60 161 l 777 161 l 777 0 l 60 0 l 60 161 "},"Ã²":{"x_min":60,"x_max":777,"ha":836,"o":"m 576 463 q 545 577 576 537 q 456 618 513 618 q 316 525 372 618 q 260 294 260 433 q 292 181 260 222 q 382 140 325 140 q 520 232 464 140 q 576 463 576 325 m 60 288 q 172 643 60 507 q 467 779 285 779 q 694 697 612 779 q 777 470 777 615 q 664 115 777 251 q 370 -20 551 -20 q 142 61 224 -20 q 60 288 60 143 m 444 1110 l 586 856 l 452 856 l 251 1110 l 444 1110 "},"^":{"x_min":38.65625,"x_max":797.53125,"ha":836,"o":"m 501 1013 l 797 635 l 633 635 l 417 839 l 202 635 l 38 635 l 335 1013 l 501 1013 "},"Â«":{"x_min":52.890625,"x_max":747.34375,"ha":836,"o":"m 747 718 l 716 556 l 499 406 l 658 257 l 627 95 l 360 362 l 377 451 l 747 718 m 440 718 l 408 556 l 191 406 l 349 257 l 319 95 l 52 362 l 69 451 l 440 718 "},"D":{"x_min":-5.640625,"x_max":790,"ha":836,"o":"m 355 832 l 229 180 l 294 180 q 422 209 370 180 q 503 299 474 239 q 560 470 538 371 q 583 655 583 570 q 540 788 583 745 q 410 832 498 832 l 355 832 m 191 1012 l 405 1012 q 694 928 598 1012 q 790 677 790 845 q 780 551 790 618 q 752 407 771 484 q 692 234 727 305 q 608 116 656 163 q 455 27 544 54 q 218 0 366 0 l -5 0 l 191 1012 "},"âˆ™":{"x_min":276.6875,"x_max":551.359375,"ha":836,"o":"m 324 608 l 551 608 l 502 360 l 276 360 l 324 608 "},"Ã¿":{"x_min":-61.03125,"x_max":852.453125,"ha":836,"o":"m 373 -82 q 242 -252 297 -216 q 101 -288 187 -288 l -61 -288 l -30 -137 l 48 -137 q 141 -116 107 -137 q 216 -20 175 -96 l 242 29 l 95 759 l 297 759 l 383 284 l 642 759 l 852 759 l 373 -82 m 581 1075 l 743 1075 l 710 908 l 550 908 l 581 1075 m 314 1075 l 474 1075 l 441 908 l 282 908 l 314 1075 "},"Ã­":{"x_min":9.5,"x_max":788.703125,"ha":836,"o":"m 209 760 l 602 760 l 484 153 l 731 153 l 702 0 l 9 0 l 38 153 l 286 153 l 375 607 l 180 607 l 209 760 m 571 1111 l 788 1111 l 488 856 l 355 856 l 571 1111 "},"Ë†":{"x_min":227.859375,"x_max":741.921875,"ha":836,"o":"m 453 1111 l 617 1111 l 741 856 l 622 856 l 519 1008 l 356 856 l 227 856 l 453 1111 "},"w":{"x_min":63,"x_max":898.703125,"ha":836,"o":"m 63 760 l 216 760 l 216 177 l 359 561 l 523 561 l 523 177 l 727 760 l 898 760 l 615 0 l 419 0 l 419 400 l 250 0 l 63 0 l 63 760 "},"$":{"x_min":26.5,"x_max":740.40625,"ha":836,"o":"m 438 360 l 398 153 q 487 193 454 160 q 521 271 521 225 q 501 327 521 306 q 438 360 482 348 m 380 556 l 416 745 q 339 708 367 739 q 311 631 311 678 q 328 584 311 603 q 380 556 346 564 m 328 -204 l 233 -204 l 271 0 q 153 15 214 0 q 26 61 92 31 l 61 239 q 181 175 121 198 q 300 152 241 152 l 347 385 q 187 468 240 412 q 135 608 135 524 q 221 810 135 729 q 445 891 307 891 l 478 1055 l 573 1055 l 541 893 q 639 883 590 893 q 740 855 688 873 l 706 686 q 617 728 665 712 q 514 744 569 744 l 470 530 q 642 441 587 498 q 697 294 697 383 q 607 86 697 168 q 368 4 518 4 l 328 -204 "},"âˆ«":{"x_min":49,"x_max":786,"ha":836,"o":"m 250 -171 q 330 262 330 -171 q 330 406 330 355 q 404 902 330 750 q 633 1054 479 1054 q 744 1020 702 1054 q 786 933 786 987 q 759 867 786 892 q 692 843 733 843 q 639 859 660 843 q 610 906 617 875 q 607 942 607 919 q 585 974 607 974 q 508 543 508 974 q 508 423 508 466 q 493 122 508 223 q 452 -47 479 21 q 348 -200 413 -147 q 200 -253 284 -253 q 90 -219 132 -253 q 49 -133 49 -186 q 75 -66 49 -91 q 145 -41 101 -41 q 204 -62 180 -41 q 228 -111 228 -84 q 232 -160 228 -150 q 250 -171 237 -171 "},"\\":{"x_min":230.578125,"x_max":502.515625,"ha":836,"o":"m 368 1013 l 502 -129 l 365 -129 l 230 1013 l 368 1013 "},"ÃŒ":{"x_min":18.3125,"x_max":817.875,"ha":836,"o":"m 180 837 l 214 1013 l 817 1013 l 783 837 l 581 837 l 454 176 l 655 176 l 620 0 l 18 0 l 52 176 l 254 176 l 381 837 l 180 837 m 515 1288 l 612 1109 l 491 1109 l 336 1288 l 515 1288 "},"Âµ":{"x_min":-37.46875,"x_max":777.5,"ha":836,"o":"m -37 -291 l 166 759 l 362 759 l 273 297 q 267 262 269 278 q 265 234 265 246 q 288 167 265 191 q 352 144 311 144 q 442 181 408 144 q 492 297 477 219 l 581 759 l 777 759 l 675 232 q 670 197 672 209 q 669 181 669 186 q 676 153 669 163 q 696 144 683 144 q 714 148 704 144 q 738 160 724 152 l 709 10 q 651 -12 678 -5 q 599 -20 624 -20 q 525 5 551 -20 q 491 87 499 30 q 413 6 455 33 q 324 -20 372 -20 q 259 -3 285 -20 q 223 44 233 12 l 157 -291 l -37 -291 "},"Ã‡":{"x_min":89,"x_max":826.984375,"ha":836,"o":"m 641 29 q 535 -7 589 4 q 422 -20 480 -20 q 174 73 260 -20 q 89 343 89 166 q 136 642 89 499 q 266 879 184 786 q 420 992 332 953 q 612 1031 508 1031 q 721 1018 668 1031 q 826 982 774 1006 l 783 760 q 700 829 749 806 q 591 853 651 853 q 485 820 537 853 q 396 729 433 787 q 320 554 349 656 q 292 360 292 452 q 334 209 292 261 q 457 156 377 156 q 566 179 512 156 q 685 251 621 202 l 641 29 m 464 0 q 500 -63 488 -32 q 513 -124 513 -94 q 461 -231 513 -191 q 321 -272 409 -272 q 251 -267 285 -272 q 184 -254 216 -263 l 203 -148 q 260 -165 232 -159 q 311 -172 287 -172 q 382 -153 357 -172 q 407 -101 407 -135 q 398 -60 407 -84 q 368 0 389 -37 l 464 0 "},"â€™":{"x_min":284.828125,"x_max":649.6875,"ha":836,"o":"m 437 1055 l 649 1055 l 613 871 l 430 612 l 284 612 l 401 871 l 437 1055 "},"-":{"x_min":165.46875,"x_max":629.34375,"ha":836,"o":"m 202 498 l 629 498 l 591 301 l 165 301 l 202 498 "},"Q":{"x_min":41,"x_max":794,"ha":836,"o":"m 362 -20 l 344 -20 q 118 64 196 -20 q 41 312 41 149 q 74 589 41 449 q 165 831 108 729 q 303 978 218 926 q 494 1030 388 1030 q 715 946 637 1030 q 794 710 794 862 q 761 424 794 566 q 670 177 728 282 q 611 95 647 132 q 526 26 576 58 l 626 -100 l 483 -190 l 362 -20 m 589 691 q 561 813 589 772 q 479 854 534 854 q 405 829 439 854 q 346 759 371 805 q 317 688 331 732 q 287 582 302 645 q 257 437 267 504 q 247 319 247 370 q 274 197 247 237 q 356 158 301 158 q 430 182 396 158 q 489 252 463 206 q 519 327 504 282 q 548 427 535 371 q 578 573 568 505 q 589 691 589 640 "},"M":{"x_min":-39.15625,"x_max":874.515625,"ha":836,"o":"m 156 1013 l 412 1013 l 412 568 l 630 1013 l 874 1013 l 678 0 l 506 0 l 667 813 l 468 369 l 304 369 l 304 813 l 131 0 l -39 0 l 156 1013 "},"C":{"x_min":89,"x_max":827.078125,"ha":836,"o":"m 641 28 q 535 -7 589 4 q 422 -20 480 -20 q 174 73 260 -20 q 89 342 89 166 q 136 641 89 498 q 266 878 184 785 q 420 991 332 952 q 612 1030 508 1030 q 721 1017 668 1030 q 827 981 774 1005 l 783 759 q 700 828 749 805 q 591 852 651 852 q 485 819 537 852 q 396 728 433 786 q 320 553 349 655 q 292 360 292 451 q 334 208 292 261 q 457 156 377 156 q 567 178 512 156 q 685 250 621 201 l 641 28 "},"!":{"x_min":229.21875,"x_max":606.96875,"ha":836,"o":"m 266 192 l 446 192 l 409 0 l 229 0 l 266 192 m 426 1012 l 606 1012 l 520 568 l 451 326 l 316 326 l 339 568 l 426 1012 "},"Ã§":{"x_min":102,"x_max":784.671875,"ha":836,"o":"m 648 25 q 540 -8 596 2 q 429 -20 485 -20 q 189 64 276 -20 q 102 294 102 148 q 226 643 102 509 q 551 778 350 778 q 675 764 617 778 q 784 721 733 750 l 748 539 q 661 597 707 578 q 562 617 615 617 q 375 532 447 617 q 303 314 303 448 q 344 184 303 227 q 469 141 385 141 q 570 159 516 141 q 686 212 624 177 l 648 25 m 480 0 q 516 -63 504 -32 q 529 -124 529 -94 q 477 -231 529 -191 q 337 -272 425 -272 q 267 -267 302 -272 q 200 -254 232 -263 l 219 -148 q 276 -165 248 -159 q 327 -172 304 -172 q 398 -153 373 -172 q 423 -101 423 -135 q 414 -60 423 -84 q 384 0 405 -37 l 480 0 "},"Ãˆ":{"x_min":19.671875,"x_max":847.03125,"ha":836,"o":"m 649 0 l 19 0 l 214 1013 l 847 1013 l 812 837 l 381 837 l 339 618 l 729 618 l 695 442 l 305 442 l 254 176 l 684 176 l 649 0 m 543 1288 l 640 1109 l 519 1109 l 364 1288 l 543 1288 "},"{":{"x_min":89.046875,"x_max":820.703125,"ha":836,"o":"m 596 -97 l 571 -227 l 470 -227 q 280 -189 337 -227 q 224 -68 224 -152 q 226 -33 224 -52 q 236 23 228 -14 l 265 168 q 274 222 271 201 q 277 256 277 242 q 244 328 277 307 q 131 349 211 349 l 89 349 l 114 479 l 155 479 q 295 516 252 479 q 359 659 339 553 l 387 805 q 480 1006 416 957 q 719 1055 543 1055 l 820 1055 l 796 926 l 712 926 q 612 896 642 926 q 563 772 582 867 l 537 630 q 473 471 516 516 q 343 414 431 425 q 435 370 407 400 q 464 289 464 341 q 461 246 464 269 q 453 196 458 223 l 425 57 q 416 7 419 26 q 414 -22 414 -11 q 436 -79 414 -62 q 514 -97 459 -97 l 596 -97 "},"X":{"x_min":-96.984375,"x_max":910.78125,"ha":836,"o":"m 726 0 l 528 0 l 393 347 l 122 0 l -96 0 l 319 530 l 124 1013 l 322 1013 l 448 698 l 693 1013 l 910 1013 l 522 512 l 726 0 "},"Ã´":{"x_min":60,"x_max":777,"ha":836,"o":"m 576 463 q 545 577 576 537 q 456 618 513 618 q 316 525 372 618 q 260 294 260 433 q 292 181 260 222 q 382 140 325 140 q 520 232 464 140 q 576 463 576 325 m 60 288 q 172 643 60 507 q 467 779 285 779 q 694 697 612 779 q 777 470 777 615 q 664 115 777 251 q 370 -20 551 -20 q 142 61 224 -20 q 60 288 60 143 m 453 1110 l 618 1110 l 742 856 l 623 856 l 519 1008 l 357 856 l 228 856 l 453 1110 "},"Â¼":{"x_min":21.015625,"x_max":775.140625,"ha":836,"o":"m 38 657 l 198 657 l 270 1025 l 115 996 l 134 1097 l 290 1125 l 423 1125 l 332 657 l 486 657 l 466 559 l 21 559 l 38 657 m 56 339 l 31 419 l 750 596 l 775 516 l 56 339 m 601 259 l 388 36 l 558 36 l 601 259 m 613 383 l 752 383 l 684 36 l 758 36 l 739 -61 l 666 -61 l 642 -183 l 515 -183 l 539 -61 l 276 -61 l 297 48 l 613 383 "},"#":{"x_min":-27.8125,"x_max":859.921875,"ha":836,"o":"m 509 597 l 372 597 l 322 399 l 459 399 l 509 597 m 472 996 l 408 743 l 547 743 l 611 996 l 760 996 l 697 743 l 859 743 l 823 597 l 659 597 l 611 399 l 773 399 l 737 253 l 573 253 l 509 0 l 359 0 l 423 253 l 284 253 l 221 0 l 70 0 l 134 253 l -27 253 l 8 399 l 172 399 l 221 597 l 58 597 l 94 743 l 258 743 l 322 996 l 472 996 "},"ÃŠ":{"x_min":19.671875,"x_max":847.03125,"ha":836,"o":"m 649 0 l 19 0 l 214 1013 l 847 1013 l 812 837 l 381 837 l 339 618 l 729 618 l 695 442 l 305 442 l 254 176 l 684 176 l 649 0 m 458 1288 l 694 1288 l 796 1109 l 682 1109 l 571 1218 l 415 1109 l 292 1109 l 458 1288 "},")":{"x_min":76.296875,"x_max":579,"ha":836,"o":"m 76 -183 q 313 233 234 28 q 393 636 393 437 q 374 837 393 733 q 316 1054 355 941 l 469 1054 q 551 826 524 938 q 579 604 579 714 q 491 210 579 407 q 228 -183 403 13 l 76 -183 "},"Ã…":{"x_min":-76.703125,"x_max":704,"ha":836,"o":"m 422 1096 q 448 1033 422 1059 q 511 1007 474 1007 q 573 1033 547 1007 q 600 1096 600 1059 q 573 1158 600 1132 q 511 1185 547 1185 q 448 1158 474 1185 q 422 1096 422 1132 m 679 955 l 679 0 l 508 0 l 508 250 l 233 250 l 123 0 l -76 0 l 370 963 q 332 1024 346 988 q 318 1095 318 1059 q 374 1232 318 1175 q 511 1289 431 1289 q 647 1232 590 1289 q 704 1095 704 1175 q 697 1019 704 1055 q 679 955 690 982 m 487 829 l 305 415 l 487 415 l 487 829 "},"Ã¸":{"x_min":-55.625,"x_max":888.578125,"ha":836,"o":"m 294 180 q 332 149 310 159 q 382 140 354 140 q 518 222 465 140 q 571 454 571 304 l 294 180 m 87 141 q 66 208 73 172 q 59 285 59 244 q 171 643 59 507 q 466 779 284 779 q 581 762 528 779 q 678 711 633 745 l 809 837 l 888 755 l 748 619 q 768 549 761 586 q 776 472 776 512 q 663 115 776 250 q 368 -20 551 -20 q 250 -3 301 -20 q 157 48 199 13 l 23 -79 l -55 1 l 87 141 m 543 580 q 504 608 526 599 q 457 618 483 618 q 323 537 375 618 q 259 307 272 457 l 543 580 "},"Ã¢":{"x_min":32,"x_max":774,"ha":836,"o":"m 467 359 q 295 323 351 359 q 239 214 239 288 q 266 143 239 171 q 336 116 293 116 q 470 179 416 116 q 544 359 524 242 l 467 359 m 755 432 l 672 0 l 474 0 l 491 84 q 387 6 446 32 q 254 -20 328 -20 q 92 39 152 -20 q 32 199 32 98 q 137 422 32 345 q 441 499 243 499 l 572 499 l 577 532 q 578 540 578 536 q 579 552 579 544 q 544 611 579 591 q 444 632 509 632 q 318 612 388 632 q 168 554 248 593 l 200 725 q 345 764 276 751 q 474 778 413 778 q 698 726 622 778 q 774 574 774 674 q 769 512 774 548 q 755 432 764 476 m 474 1111 l 638 1111 l 763 856 l 643 856 l 540 1008 l 377 856 l 249 856 l 474 1111 "},"}":{"x_min":-21.390625,"x_max":711.25,"ha":836,"o":"m 3 -97 l 87 -97 q 186 -68 156 -97 q 235 57 216 -39 l 262 196 q 326 354 283 307 q 457 414 369 401 q 364 453 393 425 q 336 535 336 482 q 338 577 336 553 q 346 630 341 601 l 375 772 q 383 822 381 804 q 386 852 386 841 q 363 909 386 892 q 285 926 340 926 l 203 926 l 228 1055 l 328 1055 q 523 1022 467 1055 q 579 912 579 989 q 565 814 579 888 l 563 804 l 535 658 q 528 617 531 637 q 526 584 526 597 q 558 502 526 526 q 669 479 590 479 l 711 479 l 686 349 l 644 349 q 504 309 548 349 q 440 168 459 270 l 412 23 q 316 -176 383 -126 q 80 -227 248 -227 l -21 -227 l 3 -97 "},"â€°":{"x_min":0,"x_max":836,"ha":836,"o":"m 449 196 q 504 333 449 277 q 641 390 560 390 q 779 333 722 390 q 836 196 836 276 q 779 57 836 114 q 641 0 722 0 q 505 56 562 0 q 449 193 449 112 l 449 196 m 641 280 q 582 254 607 280 q 558 195 558 229 q 582 135 558 160 q 641 110 606 110 q 700 135 675 110 q 726 196 726 160 q 700 255 726 230 q 641 280 675 280 m 0 776 q 56 914 0 857 q 194 971 113 971 q 330 914 274 971 q 387 776 387 857 q 330 638 387 695 q 194 581 274 581 q 56 637 113 581 q 0 776 0 694 m 193 861 q 134 837 158 861 q 110 778 110 813 q 134 716 110 742 q 193 691 158 691 q 252 716 227 691 q 278 778 278 742 q 252 836 278 811 q 193 861 227 861 m 30 196 q 86 333 30 277 q 223 390 142 390 q 361 333 304 390 q 418 196 418 276 q 360 57 418 114 q 223 0 303 0 q 86 56 142 0 q 30 196 30 113 m 223 281 q 164 256 189 281 q 140 197 140 232 q 164 135 140 161 q 223 110 189 110 q 283 136 258 110 q 309 197 309 162 q 283 255 309 230 q 223 281 257 281 m 23 450 l 731 732 l 757 668 l 48 383 l 23 450 "},"Ã„":{"x_min":-76.65625,"x_max":769.234375,"ha":836,"o":"m 493 826 l 307 415 l 493 415 l 493 826 m 394 1012 l 677 1012 l 677 0 l 512 0 l 512 250 l 235 250 l 126 0 l -76 0 l 394 1012 m 609 1288 l 769 1288 l 737 1121 l 576 1121 l 609 1288 m 341 1288 l 501 1288 l 467 1121 l 307 1121 l 341 1288 "},"Â¸":{"x_min":101.875,"x_max":431,"ha":836,"o":"m 382 0 q 418 -63 406 -32 q 431 -124 431 -94 q 379 -231 431 -191 q 238 -272 327 -272 q 169 -267 203 -272 q 101 -254 134 -263 l 120 -148 q 177 -165 150 -159 q 229 -172 205 -172 q 300 -153 275 -172 q 325 -101 325 -135 q 316 -60 325 -83 q 286 0 307 -37 l 382 0 "},"a":{"x_min":32,"x_max":774,"ha":836,"o":"m 467 359 q 295 323 351 359 q 239 214 239 288 q 266 143 239 171 q 336 116 293 116 q 470 179 416 116 q 544 359 524 242 l 467 359 m 755 432 l 672 0 l 474 0 l 491 84 q 387 6 446 32 q 254 -20 328 -20 q 92 39 152 -20 q 32 199 32 98 q 137 422 32 345 q 441 499 243 499 l 572 499 l 577 532 q 578 540 578 536 q 579 552 579 544 q 544 611 579 591 q 444 632 509 632 q 318 612 388 632 q 168 554 248 593 l 200 725 q 345 764 276 751 q 474 778 413 778 q 698 726 622 778 q 774 574 774 674 q 769 512 774 548 q 755 432 764 476 "},"â€”":{"x_min":-40.015625,"x_max":829.40625,"ha":836,"o":"m -6 468 l 829 468 l 796 301 l -40 301 l -6 468 "},"=":{"x_min":60,"x_max":777,"ha":836,"o":"m 60 361 l 777 361 l 777 200 l 60 200 l 60 361 m 60 669 l 777 669 l 777 510 l 60 510 l 60 669 "},"N":{"x_min":-16.953125,"x_max":851.109375,"ha":836,"o":"m 180 1013 l 385 1013 l 531 276 l 674 1013 l 851 1013 l 655 0 l 457 0 l 304 736 l 161 0 l -16 0 l 180 1013 "},"Ëš":{"x_min":314,"x_max":700,"ha":836,"o":"m 314 1040 q 370 1176 314 1119 q 507 1233 426 1233 q 643 1176 587 1233 q 700 1040 700 1119 q 643 903 700 960 q 507 847 587 847 q 370 903 426 847 q 314 1040 314 960 m 418 1040 q 444 976 418 1002 q 507 951 470 951 q 569 977 543 951 q 596 1040 596 1003 q 569 1102 596 1076 q 507 1129 543 1129 q 444 1102 470 1129 q 418 1040 418 1076 "},"Ãº":{"x_min":72,"x_max":819.109375,"ha":836,"o":"m 83 264 l 180 759 l 377 759 l 288 295 q 283 259 285 277 q 282 224 282 241 q 301 164 282 185 q 357 143 321 143 q 452 190 414 143 q 509 331 490 237 l 592 760 l 789 760 l 642 0 l 444 0 l 466 112 q 379 15 436 51 q 252 -20 321 -20 q 118 27 165 -20 q 72 165 72 75 q 74 208 72 184 q 83 264 77 232 m 601 1111 l 819 1111 l 519 856 l 385 856 l 601 1111 "},"2":{"x_min":-20.046875,"x_max":769,"ha":836,"o":"m 239 176 l 657 176 l 623 0 l -20 0 l 13 170 l 201 338 q 299 425 235 370 q 572 770 572 666 q 534 846 572 819 q 428 874 496 874 q 302 853 373 874 q 152 794 232 833 l 186 975 q 333 1016 260 1002 q 474 1031 405 1031 q 686 966 604 1031 q 769 800 769 902 q 461 367 769 631 l 434 344 l 239 176 "},"Ã¼":{"x_min":72,"x_max":789.9375,"ha":836,"o":"m 83 264 l 180 759 l 377 759 l 288 295 q 283 259 285 277 q 282 224 282 241 q 301 164 282 185 q 357 143 321 143 q 452 190 414 143 q 509 331 490 237 l 592 760 l 789 760 l 642 0 l 444 0 l 466 112 q 379 15 436 51 q 252 -20 321 -20 q 118 27 165 -20 q 72 165 72 75 q 74 208 72 184 q 83 264 77 232 m 581 1075 l 743 1075 l 709 908 l 549 908 l 581 1075 m 313 1075 l 474 1075 l 441 908 l 282 908 l 313 1075 "},"Â¯":{"x_min":286.1875,"x_max":739.203125,"ha":836,"o":"m 311 1055 l 739 1055 l 714 927 l 286 927 l 311 1055 "},"Z":{"x_min":-22.375,"x_max":874.84375,"ha":836,"o":"m 190 1013 l 874 1013 l 841 847 l 247 176 l 722 176 l 687 0 l -22 0 l 9 165 l 591 837 l 155 837 l 190 1013 "},"u":{"x_min":72,"x_max":789.9375,"ha":836,"o":"m 83 264 l 180 759 l 377 759 l 288 295 q 283 259 285 277 q 282 224 282 241 q 301 164 282 185 q 357 143 321 143 q 452 190 414 143 q 509 331 490 237 l 592 760 l 789 760 l 642 0 l 444 0 l 466 112 q 379 15 436 51 q 252 -20 321 -20 q 118 27 165 -20 q 72 165 72 75 q 74 208 72 184 q 83 264 77 232 "},"Ëœ":{"x_min":255.671875,"x_max":764.96875,"ha":836,"o":"m 501 925 l 467 950 q 464 953 467 951 q 415 976 436 976 q 374 952 391 976 q 349 888 356 928 l 255 888 q 314 1028 268 976 q 425 1081 360 1081 q 468 1072 448 1081 q 520 1039 489 1064 l 555 1013 q 580 997 568 1002 q 602 992 592 992 q 646 1014 628 992 q 670 1080 663 1037 l 764 1080 q 706 935 749 984 q 596 887 664 887 q 550 895 572 887 q 501 925 528 904 "},"Ã“":{"x_min":41,"x_max":794,"ha":836,"o":"m 589 691 q 561 813 589 772 q 479 854 534 854 q 405 829 439 854 q 346 759 371 805 q 317 688 331 732 q 287 582 302 645 q 257 437 267 504 q 247 319 247 370 q 274 197 247 237 q 356 158 301 158 q 430 182 396 158 q 489 252 463 206 q 519 327 504 282 q 548 427 535 371 q 578 573 568 505 q 589 691 589 640 m 41 314 q 74 589 41 450 q 166 832 108 728 q 303 978 218 927 q 494 1030 388 1030 q 717 944 640 1030 q 794 697 794 859 q 760 420 794 560 q 670 178 727 280 q 532 31 617 83 q 341 -20 447 -20 q 117 65 194 -20 q 41 314 41 151 m 584 1288 l 775 1288 l 558 1109 l 417 1109 l 584 1288 "},"k":{"x_min":55.609375,"x_max":880.265625,"ha":836,"o":"m 259 1055 l 458 1055 l 355 524 l 629 759 l 880 759 l 537 475 l 750 -1 l 539 -1 l 388 355 l 309 290 l 254 0 l 55 0 l 259 1055 "},"Ë‡":{"x_min":280.765625,"x_max":792.78125,"ha":836,"o":"m 568 856 l 404 856 l 280 1111 l 398 1111 l 502 957 l 663 1111 l 792 1111 l 568 856 "},"Ã™":{"x_min":31,"x_max":862.625,"ha":836,"o":"m 46 373 l 171 1012 l 370 1012 l 236 322 q 235 318 236 321 q 231 272 231 286 q 262 186 231 217 q 350 156 293 156 q 466 197 423 156 q 527 322 510 238 l 662 1012 l 862 1012 l 737 373 q 686 188 713 251 q 616 82 659 125 q 494 6 564 32 q 339 -20 424 -20 q 110 47 190 -20 q 31 238 31 114 q 34 300 31 266 q 46 373 38 334 m 522 1288 l 619 1109 l 498 1109 l 343 1288 l 522 1288 "},"â‚¬":{"x_min":-22.3125,"x_max":837.28125,"ha":836,"o":"m 176 685 q 355 942 239 853 q 627 1031 471 1031 q 734 1018 682 1031 q 837 982 787 1006 l 793 759 q 708 836 755 810 q 608 863 661 863 q 478 817 536 863 q 381 685 420 771 l 654 685 l 598 557 l 337 557 q 326 504 333 539 q 316 454 319 469 l 551 454 l 495 327 l 309 327 q 352 195 309 242 q 467 148 396 148 q 570 169 520 148 q 698 251 620 190 l 655 28 q 550 -7 604 4 q 440 -20 497 -20 q 200 70 286 -20 q 114 322 114 161 l 114 327 l -22 327 l 34 454 l 120 454 q 128 508 124 483 q 139 557 133 534 l 19 557 l 76 685 l 176 685 "},"Â¢":{"x_min":71,"x_max":747.8125,"ha":836,"o":"m 747 731 l 711 551 q 644 594 681 579 q 563 615 606 610 l 471 147 q 558 163 515 147 q 646 208 602 180 l 611 29 q 526 -4 569 7 q 439 -16 483 -16 l 401 -212 l 306 -212 l 343 -16 q 141 78 212 -1 q 71 294 71 159 q 107 493 71 400 q 214 659 144 587 q 341 745 268 715 q 497 776 414 776 l 534 972 l 631 972 l 593 776 q 668 764 629 776 q 747 731 707 752 m 374 147 l 467 615 q 311 516 374 605 q 248 309 248 427 q 283 192 248 237 q 374 147 318 147 "},"ÃŸ":{"x_min":19.90625,"x_max":785,"ha":836,"o":"m 776 715 q 628 680 681 715 q 575 588 575 646 q 640 484 575 549 l 644 480 l 696 428 q 755 346 735 388 q 775 258 775 304 q 687 55 775 130 q 451 -20 600 -20 q 362 -11 407 -20 q 275 13 318 -2 l 308 182 q 384 150 348 161 q 451 140 420 140 q 547 166 512 140 q 583 239 583 193 q 507 359 583 284 l 503 363 l 457 411 q 413 477 427 442 q 399 552 399 512 q 460 707 399 643 q 638 795 522 770 l 638 806 q 607 873 638 849 q 521 898 576 898 q 419 863 458 898 q 367 760 380 828 l 218 0 l 19 0 l 168 763 q 285 982 196 907 q 518 1057 374 1057 q 718 997 652 1057 q 785 818 785 938 q 777 721 785 789 l 776 715 "},"Ã©":{"x_min":52,"x_max":819.953125,"ha":836,"o":"m 674 36 q 540 -5 609 8 q 395 -20 470 -20 q 139 60 227 -20 q 52 295 52 140 q 81 480 52 391 q 165 635 111 570 q 301 742 222 705 q 471 779 380 779 q 698 697 613 779 q 784 481 784 616 q 779 411 784 451 q 765 315 775 371 l 250 315 q 247 293 248 303 q 246 272 246 283 q 291 171 246 205 q 425 137 337 137 q 572 158 499 137 q 708 219 646 179 l 674 36 m 595 464 q 598 482 597 473 q 600 499 600 491 q 565 590 600 557 q 470 624 530 624 q 354 584 402 624 q 278 464 305 544 l 595 464 m 602 1111 l 819 1111 l 520 856 l 386 856 l 602 1111 "},"s":{"x_min":61.4375,"x_max":742.1875,"ha":836,"o":"m 742 735 l 708 563 q 598 617 657 599 q 476 636 539 636 q 375 612 412 636 q 338 548 338 588 q 362 499 338 517 q 474 455 387 480 l 525 441 q 651 368 611 416 q 692 243 692 321 q 598 50 692 120 q 339 -20 505 -20 q 198 -8 268 -20 q 61 27 128 3 l 96 201 q 218 143 154 163 q 346 123 283 123 q 462 148 420 123 q 504 219 504 173 q 483 268 504 250 q 372 312 462 285 l 312 328 q 191 400 230 353 q 153 523 153 447 q 245 707 153 637 q 490 778 337 778 q 616 767 553 778 q 742 735 679 756 "},"B":{"x_min":-13.5625,"x_max":799,"ha":836,"o":"m 269 460 l 210 160 l 344 160 q 500 205 450 160 q 550 346 550 250 q 514 432 550 404 q 402 460 478 460 l 269 460 m 345 855 l 299 619 l 433 619 q 557 656 515 619 q 598 765 598 693 q 569 833 598 811 q 479 855 540 855 l 345 855 m 183 1014 l 510 1014 q 726 957 653 1014 q 799 790 799 901 q 734 613 799 680 q 551 533 670 546 q 697 471 645 524 q 750 328 750 417 q 724 192 750 255 q 651 86 698 128 q 522 20 600 40 q 312 0 444 0 l -13 0 l 183 1014 "},"â€¦":{"x_min":-58.328125,"x_max":745.984375,"ha":836,"o":"m 533 249 l 745 249 l 698 0 l 484 0 l 533 249 m 267 249 l 467 249 l 421 0 l 219 0 l 267 249 m -10 249 l 202 249 l 153 0 l -58 0 l -10 249 "},"?":{"x_min":197.46875,"x_max":774,"ha":836,"o":"m 234 192 l 415 192 l 377 0 l 197 0 l 234 192 m 430 272 l 250 272 l 270 376 q 312 490 282 441 q 405 591 342 538 l 478 654 l 483 659 q 582 790 582 744 q 556 849 582 828 q 485 870 531 870 q 355 846 424 870 q 206 772 285 821 l 242 954 q 384 1011 312 991 q 527 1031 457 1031 q 706 975 639 1031 q 774 828 774 919 q 740 707 774 763 q 628 584 707 651 l 556 526 l 551 521 q 447 355 466 450 l 430 272 "},"H":{"x_min":-5.421875,"x_max":841.609375,"ha":836,"o":"m 191 1011 l 391 1011 l 316 626 l 566 626 l 641 1012 l 841 1012 l 644 0 l 444 0 l 531 450 l 282 450 l 194 0 l -5 0 l 191 1011 "},"Ã®":{"x_min":9.5,"x_max":731.75,"ha":836,"o":"m 209 760 l 602 760 l 484 153 l 731 153 l 702 0 l 9 0 l 38 153 l 286 153 l 375 607 l 180 607 l 209 760 m 422 1111 l 587 1111 l 711 856 l 592 856 l 488 1008 l 326 856 l 197 856 l 422 1111 "},"c":{"x_min":102,"x_max":785.171875,"ha":836,"o":"m 648 24 q 541 -8 596 2 q 429 -20 486 -20 q 189 64 276 -20 q 102 293 102 148 q 226 642 102 508 q 551 777 350 777 q 675 763 618 777 q 785 720 733 749 l 749 538 q 661 597 707 578 q 562 616 615 616 q 375 531 447 616 q 303 313 303 447 q 344 183 303 226 q 469 141 385 141 q 571 158 517 141 q 686 211 625 176 l 648 24 "},"Â¶":{"x_min":69,"x_max":806.84375,"ha":836,"o":"m 455 1013 l 806 1013 l 584 -133 l 455 -133 l 659 913 l 530 913 l 327 -133 l 198 -133 l 309 440 q 131 510 193 452 q 69 665 69 569 q 179 912 69 812 q 455 1013 289 1013 "},"âˆ’":{"x_min":45,"x_max":790,"ha":836,"o":"m 45 516 l 790 516 l 790 355 l 45 355 l 45 516 "},"â‰ ":{"x_min":53,"x_max":783,"ha":836,"o":"m 53 669 l 499 669 l 670 875 l 772 791 l 673 669 l 783 669 l 783 510 l 569 510 l 451 361 l 783 361 l 783 200 l 336 200 l 165 -6 l 63 79 l 162 200 l 53 200 l 53 361 l 270 361 l 389 510 l 53 510 l 53 669 "},"â€¢":{"x_min":174,"x_max":663,"ha":836,"o":"m 174 517 q 192 611 174 566 q 245 689 211 655 q 325 742 282 724 q 418 760 369 760 q 512 741 467 760 q 590 689 556 723 q 644 610 626 654 q 663 517 663 566 q 644 423 663 467 q 590 343 625 378 q 511 289 555 308 q 416 271 466 271 q 323 289 367 271 q 244 343 279 308 q 192 422 210 378 q 174 517 174 467 "},"Â¥":{"x_min":-19.671875,"x_max":910.78125,"ha":836,"o":"m 86 1013 l 301 1013 l 419 606 l 695 1013 l 910 1013 l 657 655 l 808 655 l 783 528 l 565 528 l 487 425 l 763 425 l 739 297 l 459 297 l 401 0 l 202 0 l 259 297 l -19 297 l 5 425 l 282 425 l 242 528 l 25 528 l 50 655 l 201 655 l 86 1013 "},"(":{"x_min":229,"x_max":731.703125,"ha":836,"o":"m 731 1054 q 494 637 573 842 q 415 234 415 433 q 433 33 415 137 q 491 -183 452 -70 l 338 -183 q 256 45 283 -66 q 229 266 229 157 q 316 660 229 463 q 579 1054 404 858 l 731 1054 "},"U":{"x_min":31,"x_max":862.625,"ha":836,"o":"m 46 373 l 171 1012 l 370 1012 l 236 322 q 235 318 236 321 q 231 272 231 286 q 262 186 231 217 q 350 156 293 156 q 466 197 423 156 q 527 322 510 238 l 662 1012 l 862 1012 l 737 373 q 686 188 713 251 q 616 82 659 125 q 494 6 564 32 q 339 -20 424 -20 q 110 47 190 -20 q 31 238 31 114 q 34 300 31 266 q 46 373 38 334 "},"â—Š":{"x_min":79.34375,"x_max":756.84375,"ha":836,"o":"m 417 955 l 156 401 l 417 -158 l 678 401 l 417 955 m 417 1121 l 756 401 l 417 -323 l 79 401 l 417 1121 "},"Ã‘":{"x_min":-16.953125,"x_max":851.109375,"ha":836,"o":"m 180 1013 l 385 1013 l 531 276 l 674 1013 l 851 1013 l 655 0 l 457 0 l 304 736 l 161 0 l -16 0 l 180 1013 m 530 1143 l 497 1168 q 468 1185 480 1181 q 445 1190 457 1190 q 403 1168 421 1190 q 379 1109 385 1146 l 286 1109 q 347 1242 303 1195 q 457 1289 391 1289 q 504 1280 482 1289 q 550 1254 526 1272 l 585 1227 q 608 1213 596 1218 q 632 1209 621 1209 q 676 1229 658 1209 q 701 1289 693 1250 l 794 1289 q 732 1155 776 1202 q 624 1109 688 1109 q 577 1116 599 1109 q 530 1143 556 1123 "},"F":{"x_min":31.875,"x_max":859.921875,"ha":836,"o":"m 825 837 l 394 837 l 352 618 l 744 618 l 710 442 l 318 442 l 231 0 l 31 0 l 229 1013 l 859 1013 l 825 837 "},"Â­":{"x_min":165.46875,"x_max":629.34375,"ha":836,"o":"m 202 498 l 629 498 l 591 301 l 165 301 l 202 498 "},":":{"x_min":206.84375,"x_max":572.375,"ha":836,"o":"m 345 721 l 572 721 l 523 473 l 297 473 l 345 721 m 254 249 l 480 249 l 433 0 l 206 0 l 254 249 "},"Ã›":{"x_min":31,"x_max":862.625,"ha":836,"o":"m 46 373 l 171 1012 l 370 1012 l 236 322 q 235 318 236 321 q 231 272 231 286 q 262 186 231 217 q 350 156 293 156 q 466 197 423 156 q 527 322 510 238 l 662 1012 l 862 1012 l 737 373 q 686 188 713 251 q 616 82 659 125 q 494 6 564 32 q 339 -20 424 -20 q 110 47 190 -20 q 31 238 31 114 q 34 300 31 266 q 46 373 38 334 m 437 1288 l 673 1288 l 775 1109 l 661 1109 l 550 1218 l 394 1109 l 271 1109 l 437 1288 "},"*":{"x_min":81.984375,"x_max":751.6875,"ha":836,"o":"m 751 825 l 527 708 l 751 590 l 700 494 l 475 619 l 475 386 l 358 386 l 358 619 l 133 494 l 81 590 l 307 708 l 81 825 l 133 921 l 358 797 l 358 1031 l 475 1031 l 475 797 l 700 921 l 751 825 "},"â€ ":{"x_min":123.421875,"x_max":776.5,"ha":836,"o":"m 429 1012 l 602 1012 l 551 750 l 776 750 l 747 599 l 522 599 l 380 -133 l 206 -133 l 348 599 l 123 599 l 152 750 l 377 750 l 429 1012 "},"âˆ•":{"x_min":0,"x_max":729.03125,"ha":836,"o":"m 577 1013 l 729 1013 l 149 -129 l 0 -129 l 577 1013 "},"Â°":{"x_min":192,"x_max":643,"ha":836,"o":"m 417 1031 q 504 1013 463 1031 q 577 963 546 996 q 626 891 609 931 q 643 804 643 850 q 626 718 643 759 q 577 645 609 676 q 503 596 545 613 q 416 579 462 579 q 256 643 320 579 q 192 804 192 707 q 257 965 192 900 q 417 1031 322 1031 m 417 921 q 334 887 368 921 q 301 804 301 853 q 334 722 301 755 q 416 689 367 689 q 499 722 465 689 q 533 804 533 756 q 499 887 533 853 q 417 921 465 921 "},"V":{"x_min":159,"x_max":898.421875,"ha":836,"o":"m 343 164 l 694 1013 l 898 1013 l 461 0 l 159 0 l 159 1013 l 343 1013 l 343 164 "},"Ã¥":{"x_min":32,"x_max":774,"ha":836,"o":"m 467 359 q 295 323 351 359 q 239 214 239 288 q 266 143 239 171 q 336 116 293 116 q 470 179 416 116 q 544 359 524 242 l 467 359 m 755 432 l 672 0 l 474 0 l 491 84 q 387 6 446 32 q 254 -20 329 -20 q 92 39 152 -20 q 32 199 32 98 q 137 422 32 345 q 441 499 243 499 l 572 499 l 577 532 q 578 540 578 536 q 579 552 579 544 q 544 611 579 591 q 444 632 509 632 q 318 612 388 632 q 168 554 248 593 l 200 725 q 345 764 276 751 q 474 778 413 778 q 698 726 622 778 q 774 574 774 674 q 769 512 774 548 q 755 432 764 476 m 335 1040 q 391 1176 335 1119 q 528 1233 447 1233 q 664 1176 608 1233 q 721 1040 721 1119 q 664 903 721 960 q 528 847 608 847 q 391 903 447 847 q 335 1040 335 960 m 439 1040 q 465 976 439 1002 q 528 951 491 951 q 590 977 564 951 q 617 1040 617 1003 q 590 1102 617 1076 q 528 1129 564 1129 q 465 1102 491 1129 q 439 1040 439 1076 "},"Â ":{"x_min":0,"x_max":0,"ha":836},"0":{"x_min":61,"x_max":775.0625,"ha":836,"o":"m 332 505 q 356 565 332 541 q 416 590 381 590 q 477 565 452 590 q 503 505 503 540 q 477 445 503 470 q 416 421 452 421 q 356 445 381 421 q 332 505 332 469 m 260 298 q 283 184 260 221 q 354 148 306 148 q 433 183 397 148 q 494 287 470 219 q 552 508 530 390 q 575 712 575 626 q 552 826 575 790 q 482 863 530 863 q 400 827 436 863 q 340 723 365 792 q 282 504 304 622 q 260 298 260 386 m 775 726 q 740 432 775 581 q 648 176 705 283 q 517 31 598 83 q 337 -20 435 -20 q 133 60 206 -20 q 61 284 61 140 q 95 577 61 427 q 185 833 129 727 q 318 978 236 926 q 497 1031 400 1031 q 701 950 627 1031 q 775 726 775 870 "},"â€�":{"x_min":99.6875,"x_max":817.875,"ha":836,"o":"m 605 1055 l 817 1055 l 781 871 l 598 612 l 453 612 l 569 871 l 605 1055 m 252 1055 l 465 1055 l 429 871 l 245 612 l 99 612 l 216 871 l 252 1055 "},"Â¾":{"x_min":31.609375,"x_max":774.78125,"ha":836,"o":"m 279 813 l 203 813 l 223 912 l 297 912 q 389 930 357 912 q 421 983 421 949 q 393 1026 421 1010 q 319 1042 366 1042 q 239 1033 286 1042 q 138 1010 193 1025 l 158 1113 q 255 1130 207 1124 q 348 1137 303 1137 q 497 1102 443 1137 q 551 1007 551 1067 q 510 908 551 946 q 393 863 469 871 q 483 823 449 857 q 517 739 517 789 q 442 598 517 648 q 230 549 368 549 q 129 556 179 549 q 32 576 79 563 l 53 681 q 145 653 96 663 q 248 644 195 644 q 351 671 313 644 q 389 746 389 698 q 359 795 389 777 q 279 813 330 813 m 56 339 l 31 419 l 749 596 l 774 517 l 56 339 m 601 259 l 388 36 l 557 36 l 601 259 m 613 383 l 752 383 l 683 36 l 757 36 l 739 -61 l 666 -61 l 642 -183 l 515 -183 l 539 -61 l 275 -61 l 296 48 l 613 383 "},"@":{"x_min":-9,"x_max":834,"ha":836,"o":"m 491 204 q 609 266 561 204 q 658 421 658 328 q 630 503 658 473 q 554 533 603 533 q 436 472 485 533 q 388 323 388 411 q 415 235 388 267 q 491 204 442 204 m 723 91 l 590 91 l 602 147 q 534 95 573 113 q 455 78 495 78 q 306 137 360 78 q 252 301 252 197 q 338 555 252 451 q 549 660 425 660 q 633 643 598 660 q 688 594 668 626 q 697 640 694 618 q 700 683 700 663 q 657 781 700 745 q 544 818 615 818 q 384 774 460 818 q 247 651 307 731 q 153 468 186 568 q 121 263 121 368 q 201 6 121 101 q 417 -88 281 -88 q 525 -71 470 -88 q 635 -23 580 -55 l 678 -141 q 540 -197 605 -179 q 411 -216 475 -216 q 104 -86 218 -216 q -9 262 -9 43 q 20 481 -9 373 q 107 681 50 588 q 300 876 186 807 q 542 946 414 946 q 753 876 673 946 q 834 693 834 807 q 831 651 834 672 q 823 604 829 629 l 723 91 "},"Ã¶":{"x_min":60,"x_max":777,"ha":836,"o":"m 576 463 q 545 577 576 537 q 456 618 513 618 q 316 525 372 618 q 260 294 260 433 q 292 181 260 222 q 382 140 325 140 q 520 232 464 140 q 576 463 576 325 m 60 288 q 172 643 60 507 q 467 779 285 779 q 694 697 612 779 q 777 470 777 615 q 664 115 777 251 q 370 -20 551 -20 q 142 61 224 -20 q 60 288 60 143 m 582 1075 l 743 1075 l 710 908 l 550 908 l 582 1075 m 314 1075 l 475 1075 l 441 908 l 282 908 l 314 1075 "},"i":{"x_min":9.5,"x_max":731.75,"ha":836,"o":"m 209 760 l 602 760 l 484 153 l 731 153 l 702 0 l 9 0 l 38 153 l 286 153 l 375 607 l 180 607 l 209 760 m 476 1129 l 674 1129 l 629 897 l 430 897 l 476 1129 "},"â‰¤":{"x_min":60,"x_max":777,"ha":836,"o":"m 777 642 l 275 500 l 777 359 l 777 194 l 60 422 l 60 581 l 777 808 l 777 642 m 777 161 l 777 0 l 60 0 l 60 161 l 777 161 "},"Ã•":{"x_min":41,"x_max":794,"ha":836,"o":"m 589 691 q 561 813 589 772 q 479 854 534 854 q 405 829 439 854 q 346 759 371 805 q 317 688 331 732 q 287 582 302 645 q 257 437 267 504 q 247 319 247 370 q 274 197 247 237 q 356 158 301 158 q 430 182 396 158 q 489 252 463 206 q 519 327 504 282 q 548 427 535 371 q 578 573 568 505 q 589 691 589 640 m 41 314 q 74 589 41 450 q 166 832 108 728 q 303 978 218 927 q 494 1030 388 1030 q 717 944 640 1030 q 794 697 794 859 q 760 420 794 560 q 670 178 727 280 q 532 31 617 83 q 341 -20 447 -20 q 117 65 194 -20 q 41 314 41 151 m 530 1143 l 497 1168 q 469 1185 480 1181 q 445 1190 457 1190 q 403 1168 421 1190 q 378 1109 385 1146 l 285 1109 q 347 1242 302 1195 q 457 1289 391 1289 q 504 1280 482 1289 q 550 1254 526 1272 l 586 1227 q 608 1213 596 1218 q 632 1209 621 1209 q 676 1229 658 1209 q 701 1289 693 1250 l 794 1289 q 732 1155 776 1202 q 624 1109 688 1109 q 577 1116 599 1109 q 530 1143 556 1123 "},"Ã¾":{"x_min":-24.78125,"x_max":793.0625,"ha":836,"o":"m 408 141 q 538 237 483 141 q 593 470 593 333 q 564 576 593 538 q 486 615 536 615 q 352 520 409 615 q 296 292 296 426 q 326 181 296 221 q 408 141 357 141 m 257 139 l 173 -289 l -24 -289 l 236 1055 l 435 1055 l 355 645 q 459 745 403 712 q 578 778 515 778 q 735 703 677 778 q 793 501 793 629 q 772 325 793 413 q 713 165 751 237 q 595 28 666 77 q 444 -20 523 -20 q 319 21 368 -20 q 257 139 270 63 "},"]":{"x_min":71.890625,"x_max":657.140625,"ha":836,"o":"m 415 -184 l 71 -184 l 96 -55 l 261 -55 l 451 926 l 287 926 l 312 1055 l 657 1055 l 415 -184 "},"m":{"x_min":-22.265625,"x_max":818,"ha":836,"o":"m 522 683 q 587 752 544 727 q 682 778 630 778 q 781 740 744 778 q 818 636 818 702 q 814 571 818 604 q 800 487 810 538 l 705 0 l 543 0 l 637 487 q 647 542 644 521 q 650 573 650 563 q 638 614 650 600 q 603 629 626 629 q 551 598 570 629 q 516 487 531 568 l 422 0 l 259 0 l 355 487 q 363 538 360 515 q 367 573 367 560 q 354 614 367 600 q 319 629 342 629 q 269 599 287 629 q 234 487 250 570 l 140 0 l -22 0 l 124 760 l 269 760 l 254 680 q 323 752 282 727 q 411 778 364 778 q 487 752 457 778 q 522 683 516 727 "},"8":{"x_min":43,"x_max":771,"ha":836,"o":"m 528 323 q 491 417 528 382 q 393 453 455 453 q 269 401 317 453 q 221 270 221 350 q 258 176 221 211 q 358 141 296 141 q 480 192 432 141 q 528 323 528 243 m 294 541 q 187 607 223 559 q 151 730 151 655 q 251 942 151 854 q 495 1031 351 1031 q 694 963 618 1031 q 771 788 771 896 q 710 618 771 688 q 548 532 650 549 q 664 455 622 513 q 706 315 706 398 q 605 72 706 165 q 342 -20 504 -20 q 121 47 199 -20 q 43 237 43 114 q 110 432 43 351 q 294 541 177 513 m 329 724 q 359 643 329 675 q 438 612 390 612 q 551 652 507 612 q 595 756 595 693 q 563 840 595 810 q 476 870 532 870 q 371 828 413 870 q 329 724 329 786 "},"R":{"x_min":5.484375,"x_max":790,"ha":836,"o":"m 534 477 q 598 447 575 471 q 640 363 621 422 l 751 0 l 547 0 l 475 254 q 470 273 473 261 q 362 400 434 400 l 283 400 l 205 0 l 5 0 l 202 1012 l 480 1012 q 714 952 638 1012 q 790 770 790 893 q 723 567 790 643 q 534 477 657 491 m 371 844 l 316 568 l 400 568 q 538 611 491 568 q 586 738 586 654 q 554 817 586 791 q 461 844 523 844 l 371 844 "},"Ã¡":{"x_min":32,"x_max":840.453125,"ha":836,"o":"m 467 359 q 295 323 351 359 q 239 214 239 288 q 266 143 239 171 q 336 116 293 116 q 470 179 416 116 q 544 359 524 242 l 467 359 m 755 432 l 672 0 l 474 0 l 491 84 q 387 6 446 32 q 254 -20 328 -20 q 92 39 152 -20 q 32 199 32 98 q 137 422 32 345 q 441 499 243 499 l 572 499 l 577 532 q 578 540 578 536 q 579 552 579 544 q 544 611 579 591 q 444 632 509 632 q 318 612 388 632 q 168 554 248 593 l 200 725 q 345 764 276 751 q 474 778 413 778 q 698 726 622 778 q 774 574 774 674 q 769 512 774 548 q 755 432 764 476 m 622 1111 l 840 1111 l 540 856 l 406 856 l 622 1111 "},"Ã—":{"x_min":80.703125,"x_max":754.125,"ha":836,"o":"m 754 658 l 530 436 l 754 212 l 640 99 l 416 322 l 194 99 l 80 212 l 304 436 l 80 658 l 194 772 l 416 550 l 640 772 l 754 658 "},"o":{"x_min":60,"x_max":777,"ha":836,"o":"m 576 463 q 545 577 576 537 q 456 618 513 618 q 316 525 372 618 q 260 294 260 433 q 292 181 260 222 q 382 140 325 140 q 520 232 464 140 q 576 463 576 325 m 60 288 q 172 643 60 507 q 467 779 285 779 q 694 697 612 779 q 777 470 777 615 q 664 115 777 251 q 370 -20 551 -20 q 142 61 224 -20 q 60 288 60 143 "},"5":{"x_min":3.9375,"x_max":780.828125,"ha":836,"o":"m 230 1012 l 780 1012 l 746 836 l 357 836 l 322 647 q 368 660 344 656 q 421 665 393 665 q 633 585 554 665 q 713 373 713 506 q 592 86 713 192 q 262 -20 471 -20 q 133 -9 198 -20 q 3 23 68 1 l 38 203 q 143 162 86 176 q 266 148 201 148 q 450 201 383 148 q 518 346 518 255 q 469 458 518 417 q 338 499 421 499 q 230 485 286 499 q 120 446 174 471 l 230 1012 "},"Ãµ":{"x_min":60,"x_max":777,"ha":836,"o":"m 576 463 q 545 577 576 537 q 456 618 513 618 q 316 525 372 618 q 260 294 260 433 q 292 181 260 222 q 382 140 325 140 q 520 232 464 140 q 576 463 576 325 m 60 288 q 172 643 60 507 q 467 779 285 779 q 694 697 612 779 q 777 470 777 615 q 664 115 777 251 q 370 -20 551 -20 q 142 61 224 -20 q 60 288 60 143 m 501 925 l 468 950 q 464 952 467 950 q 415 975 436 975 q 374 951 392 975 q 350 888 357 928 l 256 888 q 315 1027 268 975 q 425 1080 361 1080 q 469 1071 448 1080 q 521 1038 490 1063 l 555 1012 q 581 996 568 1001 q 603 991 593 991 q 646 1013 629 991 q 671 1079 664 1036 l 765 1079 q 707 934 749 983 q 596 886 665 886 q 550 894 572 886 q 501 925 528 903 "},"7":{"x_min":73.921875,"x_max":830.75,"ha":836,"o":"m 177 1012 l 830 1012 l 802 870 l 290 0 l 73 0 l 572 836 l 143 836 l 177 1012 "},"K":{"x_min":-12.203125,"x_max":927.734375,"ha":836,"o":"m 183 1013 l 383 1013 l 309 635 l 691 1013 l 927 1013 l 516 603 l 745 0 l 540 0 l 368 454 l 251 339 l 187 0 l -12 0 l 183 1013 "},",":{"x_min":141.734375,"x_max":507.265625,"ha":836,"o":"m 294 249 l 507 249 l 470 65 l 287 -195 l 141 -195 l 258 65 l 294 249 "},"d":{"x_min":45,"x_max":862.765625,"ha":836,"o":"m 429 616 q 300 520 354 616 q 246 287 246 424 q 274 180 246 218 q 351 143 302 143 q 485 236 428 143 q 542 464 542 330 q 511 575 542 535 q 429 616 481 616 m 579 617 l 664 1055 l 862 1055 l 657 0 l 460 0 l 481 112 q 380 13 436 47 q 259 -20 324 -20 q 102 54 160 -20 q 45 258 45 129 q 66 432 45 345 q 125 592 87 519 q 242 729 171 679 q 393 779 314 779 q 519 735 469 779 q 579 617 569 692 "},"Â¨":{"x_min":282.125,"x_max":743.28125,"ha":836,"o":"m 581 1075 l 743 1075 l 710 908 l 550 908 l 581 1075 m 314 1075 l 474 1075 l 441 908 l 282 908 l 314 1075 "},"Ã”":{"x_min":41,"x_max":794,"ha":836,"o":"m 589 691 q 561 813 589 772 q 479 854 534 854 q 405 829 439 854 q 346 759 371 805 q 317 688 331 732 q 287 582 302 645 q 257 437 267 504 q 247 319 247 370 q 274 197 247 237 q 356 158 301 158 q 430 182 396 158 q 489 252 463 206 q 519 327 504 282 q 548 427 535 371 q 578 573 568 505 q 589 691 589 640 m 41 314 q 74 589 41 450 q 166 832 108 728 q 303 978 218 927 q 494 1030 388 1030 q 717 944 640 1030 q 794 697 794 859 q 760 420 794 560 q 670 178 727 280 q 532 31 617 83 q 341 -20 447 -20 q 117 65 194 -20 q 41 314 41 151 m 433 1288 l 669 1288 l 771 1109 l 657 1109 l 546 1218 l 389 1109 l 267 1109 l 433 1288 "},"E":{"x_min":19.671875,"x_max":847.03125,"ha":836,"o":"m 649 0 l 19 0 l 214 1013 l 847 1013 l 812 837 l 381 837 l 339 618 l 729 618 l 695 442 l 305 442 l 254 176 l 684 176 l 649 0 "},"Y":{"x_min":98.328125,"x_max":920.953125,"ha":836,"o":"m 98 1013 l 297 1013 l 423 572 l 702 1013 l 920 1013 l 491 398 l 413 0 l 214 0 l 292 398 l 98 1013 "},"\"":{"x_min":157,"x_max":678,"ha":836,"o":"m 678 1012 l 678 636 l 504 636 l 504 1012 l 678 1012 m 331 1012 l 331 636 l 157 636 l 157 1012 l 331 1012 "},"â€¹":{"x_min":206.84375,"x_max":594.75,"ha":836,"o":"m 594 718 l 560 547 l 345 393 l 501 240 l 473 95 l 206 362 l 223 451 l 594 718 "},"Ë™":{"x_min":402.828125,"x_max":620.53125,"ha":836,"o":"m 436 1075 l 620 1075 l 588 908 l 402 908 l 436 1075 "},"Ãª":{"x_min":52,"x_max":784,"ha":836,"o":"m 674 36 q 540 -5 609 8 q 395 -20 470 -20 q 139 60 227 -20 q 52 295 52 140 q 81 480 52 391 q 165 635 111 570 q 301 742 222 705 q 471 779 380 779 q 698 697 613 779 q 784 481 784 616 q 779 411 784 451 q 765 315 775 371 l 250 315 q 247 293 248 303 q 246 272 246 283 q 291 171 246 205 q 425 137 337 137 q 572 158 499 137 q 708 219 646 179 l 674 36 m 595 464 q 598 482 597 473 q 600 499 600 491 q 565 590 600 557 q 470 624 530 624 q 354 584 402 624 q 278 464 305 544 l 595 464 m 453 1110 l 618 1110 l 742 856 l 623 856 l 520 1008 l 357 856 l 228 856 l 453 1110 "},"Ã�":{"x_min":18.3125,"x_max":817.875,"ha":836,"o":"m 180 837 l 214 1013 l 817 1013 l 783 837 l 581 837 l 454 176 l 655 176 l 620 0 l 18 0 l 52 176 l 254 176 l 381 837 l 180 837 m 606 1288 l 766 1288 l 734 1121 l 573 1121 l 606 1288 m 339 1288 l 498 1288 l 465 1121 l 305 1121 l 339 1288 "},"â€ž":{"x_min":-52.890625,"x_max":663.921875,"ha":836,"o":"m 451 249 l 663 249 l 629 65 l 444 -195 l 299 -195 l 416 65 l 451 249 m 98 249 l 311 249 l 276 65 l 91 -195 l -52 -195 l 63 65 l 98 249 "},"Ã‚":{"x_min":-76.65625,"x_max":771.9375,"ha":836,"o":"m 493 826 l 307 415 l 493 415 l 493 826 m 394 1012 l 677 1012 l 677 0 l 512 0 l 512 250 l 235 250 l 126 0 l -76 0 l 394 1012 m 433 1288 l 669 1288 l 771 1109 l 657 1109 l 545 1218 l 389 1109 l 267 1109 l 433 1288 "},"Ã�":{"x_min":18.3125,"x_max":817.875,"ha":836,"o":"m 180 837 l 214 1013 l 817 1013 l 783 837 l 581 837 l 454 176 l 655 176 l 620 0 l 18 0 l 52 176 l 254 176 l 381 837 l 180 837 m 581 1288 l 772 1288 l 555 1109 l 415 1109 l 581 1288 "},"Â´":{"x_min":385.875,"x_max":819.234375,"ha":836,"o":"m 601 1111 l 819 1111 l 519 856 l 385 856 l 601 1111 "},"Ã¬":{"x_min":9.5,"x_max":731.75,"ha":836,"o":"m 209 760 l 602 760 l 484 153 l 731 153 l 702 0 l 9 0 l 38 153 l 286 153 l 375 607 l 180 607 l 209 760 m 413 1111 l 555 856 l 421 856 l 221 1111 l 413 1111 "},"Â±":{"x_min":60,"x_max":777,"ha":836,"o":"m 499 871 l 499 631 l 777 631 l 777 470 l 499 470 l 499 231 l 338 231 l 338 470 l 60 470 l 60 631 l 338 631 l 338 871 l 499 871 m 60 161 l 777 161 l 777 0 l 60 0 l 60 161 "},"Ãš":{"x_min":31,"x_max":862.625,"ha":836,"o":"m 46 373 l 171 1012 l 370 1012 l 236 322 q 235 318 236 321 q 231 272 231 286 q 262 186 231 217 q 350 156 293 156 q 466 197 423 156 q 527 322 510 238 l 662 1012 l 862 1012 l 737 373 q 686 188 713 251 q 616 82 659 125 q 494 6 564 32 q 339 -20 424 -20 q 110 47 190 -20 q 31 238 31 114 q 34 300 31 266 q 46 373 38 334 m 588 1288 l 779 1288 l 562 1109 l 421 1109 l 588 1288 "},"|":{"x_min":340,"x_max":494,"ha":836,"o":"m 494 1061 l 494 -328 l 340 -328 l 340 1061 l 494 1061 "},"Â§":{"x_min":70.8125,"x_max":718.3125,"ha":836,"o":"m 440 540 q 412 558 439 540 q 359 595 385 577 q 299 535 320 565 q 278 480 278 505 q 289 434 278 453 q 327 396 301 414 l 380 360 q 415 337 395 350 q 462 306 434 324 q 522 362 501 333 q 543 419 543 392 q 530 465 543 443 q 494 503 517 487 l 440 540 m 718 990 l 687 834 q 597 868 641 857 q 510 880 552 880 q 420 857 452 880 q 389 791 389 834 q 409 739 389 763 q 503 668 429 715 l 575 623 q 671 537 642 579 q 700 444 700 496 q 662 337 700 387 q 547 240 624 286 q 592 177 577 211 q 607 100 607 143 q 525 -67 607 -2 q 312 -132 444 -132 q 197 -121 257 -132 q 70 -91 137 -111 l 102 64 q 205 30 152 42 q 310 19 259 19 q 400 42 368 19 q 432 107 432 65 q 329 223 432 154 l 316 231 l 249 277 q 148 365 175 326 q 121 455 121 404 q 162 570 121 518 q 280 656 203 622 q 230 717 246 683 q 214 793 214 750 q 293 965 214 899 q 502 1031 373 1031 q 605 1020 550 1031 q 718 990 659 1010 "},"Ã�":{"x_min":98.328125,"x_max":920.953125,"ha":836,"o":"m 98 1013 l 297 1013 l 423 572 l 702 1013 l 920 1013 l 491 398 l 413 0 l 214 0 l 292 398 l 98 1013 m 581 1288 l 772 1288 l 555 1109 l 415 1109 l 581 1288 "},"b":{"x_min":31.546875,"x_max":790.0625,"ha":836,"o":"m 406 141 q 536 237 482 141 q 590 470 590 333 q 561 576 590 538 q 483 615 533 615 q 350 520 406 615 q 294 292 294 426 q 324 181 294 221 q 406 141 355 141 m 258 139 l 230 0 l 31 0 l 237 1055 l 435 1055 l 355 645 q 454 744 397 710 q 574 778 510 778 q 732 703 674 778 q 790 501 790 629 q 769 324 790 412 q 711 165 748 236 q 593 28 664 77 q 442 -20 522 -20 q 318 22 367 -20 q 258 139 269 64 "},"q":{"x_min":46,"x_max":804.453125,"ha":836,"o":"m 579 617 l 605 759 l 804 759 l 600 -289 l 402 -289 l 480 112 q 381 13 438 47 q 261 -20 325 -20 q 103 54 161 -20 q 46 258 46 129 q 67 432 46 345 q 126 592 88 519 q 244 729 173 680 q 393 779 314 779 q 517 736 468 779 q 579 617 567 694 m 429 616 q 299 520 353 616 q 245 287 245 424 q 273 181 245 219 q 352 143 302 143 q 485 236 429 143 q 542 464 542 330 q 511 575 542 535 q 429 616 480 616 "},"Ã–":{"x_min":41,"x_max":794,"ha":836,"o":"m 589 691 q 561 813 589 772 q 479 854 534 854 q 405 829 439 854 q 346 759 371 805 q 317 688 331 732 q 287 582 302 645 q 257 437 267 504 q 247 319 247 370 q 274 197 247 237 q 356 158 301 158 q 430 182 396 158 q 489 252 463 206 q 519 327 504 282 q 548 427 535 371 q 578 573 568 505 q 589 691 589 640 m 41 314 q 74 589 41 450 q 166 832 108 728 q 303 978 218 927 q 494 1030 388 1030 q 717 944 640 1030 q 794 697 794 859 q 760 420 794 560 q 670 178 727 280 q 532 31 617 83 q 341 -20 447 -20 q 117 65 194 -20 q 41 314 41 151 m 609 1288 l 768 1288 l 737 1121 l 576 1121 l 609 1288 m 341 1288 l 501 1288 l 467 1121 l 307 1121 l 341 1288 "},"z":{"x_min":33.234375,"x_max":805.671875,"ha":836,"o":"m 198 760 l 805 760 l 775 604 l 295 149 l 686 149 l 657 0 l 33 0 l 63 155 l 543 611 l 169 611 l 198 760 "},"â„¢":{"x_min":0,"x_max":764,"ha":836,"o":"m 494 1013 l 562 859 l 622 1013 l 764 1013 l 764 621 l 660 621 l 660 917 l 587 744 l 536 744 l 457 917 l 457 621 l 354 621 l 354 1013 l 494 1013 m 297 1013 l 297 923 l 202 923 l 202 621 l 96 621 l 96 923 l 0 923 l 0 1013 l 297 1013 "},"Ã£":{"x_min":32,"x_max":786.203125,"ha":836,"o":"m 467 359 q 295 323 351 359 q 239 214 239 288 q 266 143 239 171 q 336 116 293 116 q 470 179 416 116 q 544 359 524 242 l 467 359 m 755 432 l 672 0 l 474 0 l 491 84 q 387 6 446 32 q 254 -20 328 -20 q 92 39 152 -20 q 32 199 32 98 q 137 422 32 345 q 441 499 243 499 l 572 499 l 577 532 q 578 540 578 536 q 579 552 579 544 q 544 611 579 591 q 444 632 509 632 q 318 612 388 632 q 168 554 248 593 l 200 725 q 345 764 276 751 q 474 778 413 778 q 698 726 622 778 q 774 574 774 674 q 769 512 774 548 q 755 432 764 476 m 522 925 l 488 950 q 485 952 488 950 q 436 975 457 975 q 395 951 413 975 q 371 888 377 928 l 276 888 q 335 1027 289 975 q 446 1080 381 1080 q 489 1071 469 1080 q 541 1038 510 1063 l 576 1012 q 601 996 589 1001 q 623 991 613 991 q 667 1013 649 991 q 691 1079 685 1036 l 786 1079 q 728 934 770 983 q 617 886 685 886 q 571 894 593 886 q 522 925 549 903 "},"Ã¦":{"x_min":-21,"x_max":835,"ha":836,"o":"m 314 272 l 323 325 l 273 325 q 167 290 207 325 q 128 197 128 255 q 147 142 128 162 q 200 122 167 122 q 272 157 245 122 q 314 272 299 192 m 672 466 l 680 512 q 683 535 682 523 q 685 565 685 546 q 671 616 685 600 q 628 632 657 632 q 566 603 590 632 q 529 515 542 575 l 519 466 l 672 466 m 797 323 l 492 323 q 484 271 486 289 q 482 241 482 253 q 511 154 482 186 q 587 122 540 122 q 671 141 625 122 q 762 195 718 160 l 730 34 q 645 -6 691 7 q 544 -20 599 -20 q 435 8 480 -20 q 368 91 390 37 q 277 7 327 35 q 166 -20 227 -20 q 29 33 80 -20 q -21 177 -21 87 q 61 388 -21 308 q 282 468 144 468 l 355 468 l 362 507 q 365 527 364 517 q 366 547 366 537 q 343 610 366 588 q 276 632 320 632 q 194 614 241 632 q 89 563 147 597 l 121 725 q 223 764 174 751 q 319 778 273 778 q 414 754 375 778 q 471 687 454 730 q 553 754 506 731 q 657 778 600 778 q 788 730 742 778 q 835 594 835 683 q 829 516 835 561 q 812 410 824 470 l 797 323 "},"Â®":{"x_min":0,"x_max":836,"ha":836,"o":"m 417 922 q 577 891 503 922 q 712 799 651 860 q 804 663 773 738 q 836 503 836 588 q 805 344 836 418 q 712 208 774 270 q 577 115 650 146 q 417 85 503 85 q 259 115 332 85 q 123 208 185 146 q 30 344 61 270 q 0 503 0 418 q 31 663 0 588 q 123 799 62 738 q 258 891 184 860 q 417 922 332 922 m 398 641 l 355 641 l 355 529 l 398 529 q 456 542 437 529 q 476 583 476 556 q 456 627 476 613 q 398 641 437 641 m 411 716 q 545 686 501 716 q 589 595 589 656 q 562 522 589 550 q 487 485 535 493 q 532 456 513 475 q 567 404 550 437 l 620 292 l 503 292 l 461 382 q 423 437 442 421 q 376 454 403 454 l 355 454 l 355 292 l 244 292 l 244 716 l 411 716 m 417 834 q 292 809 350 834 q 185 736 235 785 q 113 629 137 688 q 89 502 89 571 q 113 378 89 436 q 185 270 137 321 q 292 198 234 222 q 417 174 350 174 q 543 198 484 174 q 649 270 601 222 q 722 378 698 321 q 747 502 747 436 q 722 629 747 571 q 649 736 698 688 q 543 809 600 785 q 417 834 486 834 "},"Ã‰":{"x_min":19.671875,"x_max":847.03125,"ha":836,"o":"m 649 0 l 19 0 l 214 1013 l 847 1013 l 812 837 l 381 837 l 339 618 l 729 618 l 695 442 l 305 442 l 254 176 l 684 176 l 649 0 m 609 1288 l 800 1288 l 583 1109 l 442 1109 l 609 1288 "},"~":{"x_min":60,"x_max":777,"ha":836,"o":"m 777 550 l 777 392 q 677 332 726 351 q 575 314 629 314 q 437 348 514 314 q 415 358 422 355 q 328 389 363 381 q 258 398 293 398 q 158 378 205 398 q 60 315 110 358 l 60 470 q 162 530 112 512 q 268 549 211 549 q 338 541 304 549 q 422 512 372 533 q 444 502 429 509 q 586 465 523 465 q 680 485 633 465 q 777 550 727 506 "},"Â³":{"x_min":186.953125,"x_max":705,"ha":836,"o":"m 433 707 l 357 707 l 377 806 l 451 806 q 543 824 511 806 q 575 877 575 843 q 547 920 575 904 q 473 936 520 936 q 393 927 440 936 q 292 904 347 919 l 312 1007 q 409 1024 361 1018 q 502 1031 457 1031 q 651 996 597 1031 q 705 901 705 961 q 663 802 705 840 q 547 757 622 765 q 636 717 603 751 q 670 633 670 683 q 595 492 670 542 q 384 443 521 443 q 283 450 333 443 q 186 470 233 457 l 207 575 q 299 547 250 557 q 402 538 349 538 q 505 565 467 538 q 543 640 543 592 q 513 689 543 671 q 433 707 484 707 "},"Â¡":{"x_min":229.21875,"x_max":606.96875,"ha":836,"o":"m 569 821 l 388 821 l 426 1013 l 606 1013 l 569 821 m 409 0 l 229 0 l 315 444 l 384 686 l 519 686 l 495 444 l 409 0 "},"[":{"x_min":151.234375,"x_max":737.171875,"ha":836,"o":"m 393 1055 l 737 1055 l 711 926 l 547 926 l 356 -55 l 520 -55 l 495 -184 l 151 -184 l 393 1055 "},"L":{"x_min":54.25,"x_max":716.828125,"ha":836,"o":"m 54 0 l 251 1012 l 451 1012 l 288 176 l 716 176 l 682 0 l 54 0 "}," ":{"x_min":0,"x_max":0,"ha":836},"âˆ‘":{"x_min":86,"x_max":749,"ha":836,"o":"m 421 385 l 86 934 l 86 1029 l 737 1029 l 737 885 l 298 885 l 602 385 l 296 -153 l 749 -153 l 749 -296 l 86 -296 l 86 -204 l 421 385 "},"%":{"x_min":22,"x_max":826,"ha":836,"o":"m 22 754 q 85 907 22 844 q 238 971 148 971 q 391 907 328 971 q 455 754 455 844 q 391 601 455 664 q 238 538 328 538 q 85 600 148 538 q 22 754 22 663 m 238 847 q 172 820 199 847 q 145 754 145 793 q 172 687 145 714 q 238 661 199 661 q 304 687 277 661 q 331 754 331 714 q 303 819 331 792 q 238 847 276 847 m 57 380 l 764 663 l 792 598 l 81 315 l 57 380 m 393 216 q 455 369 393 306 q 609 433 518 433 q 762 369 698 433 q 826 216 826 306 q 762 63 826 126 q 609 0 698 0 q 455 62 518 0 q 393 216 393 125 m 607 310 q 542 282 569 310 q 516 216 516 255 q 542 149 516 176 q 607 123 568 123 q 674 150 647 123 q 702 216 702 177 q 674 282 702 254 q 607 310 646 310 "},"P":{"x_min":10.453125,"x_max":820,"ha":836,"o":"m 374 844 l 317 547 l 414 547 q 562 592 513 547 q 612 730 612 638 q 576 817 612 791 q 456 844 541 844 l 374 844 m 207 1012 l 492 1012 q 736 949 652 1012 q 820 769 820 887 q 795 616 820 692 q 731 495 770 540 q 599 406 678 433 q 395 379 521 379 l 284 379 l 210 0 l 10 0 l 207 1012 "},"âˆ�":{"x_min":103,"x_max":733,"ha":836,"o":"m 733 1029 l 733 -295 l 559 -295 l 559 889 l 277 889 l 277 -295 l 103 -295 l 103 1029 l 733 1029 "},"Ã€":{"x_min":-76.65625,"x_max":677,"ha":836,"o":"m 493 826 l 307 415 l 493 415 l 493 826 m 394 1012 l 677 1012 l 677 0 l 512 0 l 512 250 l 235 250 l 126 0 l -76 0 l 394 1012 m 518 1288 l 615 1109 l 494 1109 l 339 1288 l 518 1288 "},"_":{"x_min":0,"x_max":836,"ha":836,"o":"m 836 -199 l 836 -328 l 0 -328 l 0 -199 l 836 -199 "},"Ã±":{"x_min":40.015625,"x_max":765.421875,"ha":836,"o":"m 747 493 l 651 0 l 453 0 l 543 462 q 548 497 546 479 q 550 534 550 515 q 530 594 550 573 q 473 614 510 614 q 378 566 417 614 q 320 426 338 517 l 238 0 l 40 0 l 187 760 l 385 760 l 364 645 q 453 743 396 708 q 579 778 510 778 q 713 730 666 778 q 760 597 760 683 q 756 551 760 577 q 747 493 753 525 m 501 925 l 467 950 q 464 952 467 950 q 415 975 436 975 q 374 951 391 975 q 349 888 356 928 l 255 888 q 314 1027 268 975 q 425 1080 360 1080 q 468 1071 448 1080 q 520 1039 489 1063 l 555 1012 q 580 997 568 1002 q 603 992 592 992 q 646 1014 628 992 q 670 1079 664 1037 l 765 1079 q 707 935 749 983 q 596 887 664 887 q 550 895 572 887 q 501 925 528 904 "},"+":{"x_min":45,"x_max":790,"ha":836,"o":"m 499 808 l 499 516 l 790 516 l 790 355 l 499 355 l 499 62 l 338 62 l 338 355 l 45 355 l 45 516 l 338 516 l 338 808 l 499 808 "},"â€š":{"x_min":116.640625,"x_max":482.171875,"ha":836,"o":"m 269 249 l 482 249 l 445 65 l 262 -195 l 116 -195 l 233 65 l 269 249 "},"Â½":{"x_min":21.015625,"x_max":802,"ha":836,"o":"m 38 657 l 198 657 l 270 1025 l 115 996 l 134 1097 l 290 1125 l 423 1125 l 332 657 l 486 657 l 466 559 l 21 559 l 38 657 m 56 339 l 31 419 l 750 596 l 775 516 l 56 339 m 453 -85 l 750 -85 l 731 -183 l 280 -183 l 300 -87 q 396 -18 335 -62 q 668 237 668 175 q 643 284 668 267 q 573 301 619 301 q 480 288 531 301 q 377 252 429 276 l 398 362 q 499 386 450 378 q 599 395 549 395 q 749 358 696 395 q 802 254 802 321 q 523 -35 802 159 q 453 -85 477 -67 "},"Ã†":{"x_min":-101.71875,"x_max":889.078125,"ha":836,"o":"m 889 1013 l 854 837 l 657 837 l 616 625 l 792 625 l 758 449 l 581 449 l 528 176 l 739 176 l 703 0 l 322 0 l 370 245 l 179 245 l 73 0 l -101 0 l 340 1013 l 889 1013 m 432 837 l 247 406 l 401 406 l 486 837 l 432 837 "},"Ã‹":{"x_min":19.671875,"x_max":847.03125,"ha":836,"o":"m 649 0 l 19 0 l 214 1013 l 847 1013 l 812 837 l 381 837 l 339 618 l 729 618 l 695 442 l 305 442 l 254 176 l 684 176 l 649 0 m 634 1288 l 794 1288 l 762 1121 l 601 1121 l 634 1288 m 366 1288 l 526 1288 l 493 1121 l 332 1121 l 366 1288 "},"'":{"x_min":330,"x_max":504,"ha":836,"o":"m 504 1012 l 504 636 l 330 636 l 330 1012 l 504 1012 "},"Âª":{"x_min":143.28125,"x_max":713,"ha":836,"o":"m 700 790 l 640 486 l 499 486 l 512 545 q 439 491 481 509 q 344 473 398 473 q 229 514 272 473 q 186 626 186 555 q 261 781 186 727 q 478 836 337 836 l 569 836 l 573 859 q 574 864 574 861 q 575 872 575 867 q 550 913 575 899 q 478 928 525 928 q 389 914 439 928 q 283 874 340 900 l 306 993 q 408 1021 360 1012 q 501 1031 457 1031 q 657 995 601 1031 q 713 895 713 959 q 710 850 713 874 q 700 790 707 827 m 495 737 q 373 712 413 737 q 334 637 334 688 q 353 587 334 607 q 403 568 373 568 q 498 611 460 568 q 549 737 536 655 l 495 737 m 167 405 l 633 405 l 609 290 l 143 290 l 167 405 "},"Ë›":{"x_min":174,"x_max":465.609375,"ha":836,"o":"m 279 0 l 375 0 q 308 -79 324 -53 q 292 -121 292 -104 q 309 -158 292 -144 q 355 -172 327 -172 q 407 -166 380 -172 q 465 -150 435 -161 l 444 -257 q 380 -268 411 -264 q 319 -272 348 -272 q 213 -245 252 -272 q 174 -174 174 -219 q 200 -90 174 -134 q 279 0 226 -46 "},"Ã°":{"x_min":56,"x_max":818.078125,"ha":836,"o":"m 568 527 q 514 548 542 541 q 457 555 487 555 q 312 480 370 555 q 255 289 255 405 q 288 180 255 221 q 379 140 322 140 q 519 225 464 140 q 575 443 575 310 q 573 486 575 466 q 568 527 571 506 m 612 901 q 733 664 693 777 q 774 442 774 550 q 662 106 774 233 q 365 -20 550 -20 q 137 58 218 -20 q 56 279 56 136 q 164 591 56 469 q 441 714 272 714 q 492 709 470 714 q 534 697 514 705 q 497 776 516 739 q 459 842 478 812 l 236 759 l 208 837 l 416 915 l 332 1055 l 520 1055 l 570 973 l 790 1053 l 818 977 l 612 901 "},"T":{"x_min":122.078125,"x_max":873.484375,"ha":836,"o":"m 419 0 l 219 0 l 381 838 l 122 838 l 155 1013 l 873 1013 l 838 838 l 581 838 l 419 0 "},"Ãž":{"x_min":10.96875,"x_max":790,"ha":836,"o":"m 254 225 l 211 0 l 10 0 l 208 1011 l 408 1011 l 376 858 l 462 858 q 706 795 622 858 q 790 614 790 733 q 765 462 790 538 q 701 342 740 387 q 569 252 648 280 q 365 225 490 225 l 254 225 m 345 690 l 287 393 l 386 393 q 533 438 485 393 q 582 576 582 483 q 547 663 582 637 q 428 690 512 690 l 345 690 "},"j":{"x_min":-42.71875,"x_max":711.40625,"ha":836,"o":"m 497 28 q 454 -133 474 -84 q 401 -212 433 -181 q 306 -270 361 -252 q 165 -288 251 -288 l -42 -288 l -12 -135 l 144 -135 q 246 -98 212 -135 q 298 28 281 -62 l 410 606 l 209 606 l 238 759 l 638 759 l 497 28 m 666 897 l 467 897 l 512 1129 l 711 1129 l 666 897 "},"1":{"x_min":29.15625,"x_max":691.734375,"ha":836,"o":"m 63 176 l 287 176 l 415 833 l 197 781 l 231 962 l 453 1012 l 644 1012 l 482 176 l 691 176 l 657 0 l 29 0 l 63 176 "},"â€º":{"x_min":214.984375,"x_max":601.53125,"ha":836,"o":"m 336 718 l 601 451 l 584 362 l 214 95 l 245 257 l 463 406 l 304 556 l 336 718 "},"Ã¤":{"x_min":32,"x_max":774,"ha":836,"o":"m 467 359 q 295 323 351 359 q 239 214 239 288 q 266 143 239 171 q 336 116 293 116 q 470 179 416 116 q 544 359 524 242 l 467 359 m 755 432 l 672 0 l 474 0 l 491 84 q 387 6 446 32 q 254 -20 328 -20 q 92 39 152 -20 q 32 199 32 98 q 137 422 32 345 q 441 499 243 499 l 572 499 l 577 532 q 578 540 578 536 q 579 552 579 544 q 544 611 579 591 q 444 632 509 632 q 318 612 388 632 q 168 554 248 593 l 200 725 q 345 764 276 751 q 474 778 413 778 q 698 726 622 778 q 774 574 774 674 q 769 512 774 548 q 755 432 764 476 m 602 1075 l 764 1075 l 731 908 l 570 908 l 602 1075 m 335 1075 l 495 1075 l 462 908 l 303 908 l 335 1075 "},"<":{"x_min":60,"x_max":777,"ha":836,"o":"m 777 628 l 237 434 l 777 242 l 777 73 l 60 355 l 60 515 l 777 797 l 777 628 "},"Â£":{"x_min":-15.59375,"x_max":844.328125,"ha":836,"o":"m 844 987 l 808 807 q 727 849 767 835 q 645 863 687 863 q 531 817 574 863 q 469 675 488 772 l 446 556 l 674 556 l 645 403 l 416 403 l 373 176 l 699 176 l 665 0 l -15 0 l 19 176 l 179 176 l 222 403 l 87 403 l 118 556 l 252 556 l 278 689 q 399 951 312 871 q 648 1031 486 1031 q 747 1020 698 1031 q 844 987 796 1009 "},"Â¹":{"x_min":195.984375,"x_max":661.21875,"ha":836,"o":"m 213 551 l 373 551 l 445 919 l 290 890 l 309 991 l 465 1019 l 598 1019 l 507 551 l 661 551 l 641 453 l 195 453 l 213 551 "},"t":{"x_min":111.0625,"x_max":792.859375,"ha":836,"o":"m 575 975 l 533 760 l 792 760 l 763 607 l 503 607 l 433 247 q 429 224 430 234 q 428 208 428 213 q 448 165 428 178 q 522 153 468 153 l 674 153 l 645 0 l 479 0 q 283 37 341 0 q 225 162 225 75 q 228 200 225 177 q 237 257 231 223 l 305 607 l 111 607 l 140 760 l 334 760 l 376 975 l 575 975 "},"Â¬":{"x_min":59.578125,"x_max":776,"ha":836,"o":"m 59 610 l 776 610 l 776 245 l 615 245 l 615 449 l 59 449 l 59 610 "},"Ã¹":{"x_min":72,"x_max":789.9375,"ha":836,"o":"m 83 264 l 180 759 l 377 759 l 288 295 q 283 259 285 277 q 282 224 282 241 q 301 164 282 185 q 357 143 321 143 q 452 190 414 143 q 509 331 490 237 l 592 760 l 789 760 l 642 0 l 444 0 l 466 112 q 379 15 436 51 q 252 -20 321 -20 q 118 27 165 -20 q 72 165 72 75 q 74 208 72 184 q 83 264 77 232 m 444 1110 l 585 856 l 451 856 l 251 1110 l 444 1110 "},"W":{"x_min":62.109375,"x_max":929.171875,"ha":836,"o":"m 62 1013 l 268 1013 l 195 269 l 380 750 l 546 750 l 546 269 l 751 1013 l 929 1013 l 616 0 l 429 0 l 429 531 l 209 0 l 62 0 l 62 1013 "},"Ã¯":{"x_min":9.5,"x_max":731.75,"ha":836,"o":"m 209 760 l 602 760 l 484 153 l 731 153 l 702 0 l 9 0 l 38 153 l 286 153 l 375 607 l 180 607 l 209 760 m 551 1075 l 712 1075 l 679 908 l 519 908 l 551 1075 m 283 1075 l 444 1075 l 410 908 l 251 908 l 283 1075 "},">":{"x_min":60,"x_max":777,"ha":836,"o":"m 60 628 l 60 797 l 777 515 l 777 355 l 60 73 l 60 242 l 599 434 l 60 628 "},"v":{"x_min":116.640625,"x_max":834.828125,"ha":836,"o":"m 834 760 l 461 0 l 210 0 l 116 760 l 308 760 l 362 164 l 626 760 l 834 760 "},"Ã»":{"x_min":72,"x_max":789.9375,"ha":836,"o":"m 83 264 l 180 759 l 377 759 l 288 295 q 283 259 285 277 q 282 224 282 241 q 301 164 282 185 q 357 143 321 143 q 452 190 414 143 q 509 331 490 237 l 592 760 l 789 760 l 642 0 l 444 0 l 466 112 q 379 15 436 51 q 252 -20 321 -20 q 118 27 165 -20 q 72 165 72 75 q 74 208 72 184 q 83 264 77 232 m 452 1111 l 617 1111 l 741 856 l 622 856 l 519 1008 l 356 856 l 227 856 l 452 1111 "},"Ã’":{"x_min":41,"x_max":794,"ha":836,"o":"m 589 691 q 561 813 589 772 q 479 854 534 854 q 405 829 439 854 q 346 759 371 805 q 317 688 331 732 q 287 582 302 645 q 257 437 267 504 q 247 319 247 370 q 274 197 247 237 q 356 158 301 158 q 430 182 396 158 q 489 252 463 206 q 519 327 504 282 q 548 427 535 371 q 578 573 568 505 q 589 691 589 640 m 41 314 q 74 589 41 450 q 166 832 108 728 q 303 978 218 927 q 494 1030 388 1030 q 717 944 640 1030 q 794 697 794 859 q 760 420 794 560 q 670 178 727 280 q 532 31 617 83 q 341 -20 447 -20 q 117 65 194 -20 q 41 314 41 151 m 518 1288 l 615 1109 l 494 1109 l 338 1288 l 518 1288 "},"&":{"x_min":-22,"x_max":820,"ha":836,"o":"m 501 48 q 382 -2 443 14 q 262 -20 321 -20 q 55 52 132 -20 q -22 243 -22 124 q 44 451 -22 354 q 237 619 111 547 q 211 692 219 658 q 203 758 203 726 q 293 956 203 882 q 539 1031 384 1031 q 632 1023 587 1031 q 722 1001 678 1016 l 689 828 q 609 865 652 852 q 521 878 566 878 q 429 853 461 878 q 398 784 398 829 q 410 722 398 761 q 450 624 423 683 l 600 298 q 646 389 629 337 q 663 505 663 441 l 820 505 q 777 313 820 398 q 661 166 735 228 l 739 0 l 525 0 l 501 48 m 296 495 q 202 409 234 460 q 171 296 171 359 q 214 184 171 229 q 321 140 257 140 q 381 149 351 140 q 443 177 412 158 l 296 495 "},"Ë�":{"x_min":252.953125,"x_max":859.921875,"ha":836,"o":"m 683 1111 l 859 1111 l 625 856 l 508 856 l 683 1111 m 415 1111 l 581 1111 l 364 856 l 252 856 l 415 1111 "},"Ã�":{"x_min":-11.0625,"x_max":790,"ha":836,"o":"m 191 1012 l 405 1012 q 694 928 598 1012 q 790 677 790 845 q 780 551 790 618 q 752 407 771 484 q 692 234 727 305 q 608 116 656 163 q 455 27 544 54 q 218 0 366 0 l -5 0 l 81 450 l -11 450 l 20 611 l 112 611 l 191 1012 m 355 832 l 312 611 l 455 611 l 425 450 l 281 450 l 229 180 l 294 180 q 422 209 370 180 q 503 299 474 239 q 560 470 538 371 q 583 655 583 570 q 540 788 583 745 q 410 832 498 832 l 355 832 "},"I":{"x_min":18.3125,"x_max":817.875,"ha":836,"o":"m 180 837 l 214 1013 l 817 1013 l 783 837 l 581 837 l 454 176 l 655 176 l 620 0 l 18 0 l 52 176 l 254 176 l 381 837 l 180 837 "},"G":{"x_min":69,"x_max":808.078125,"ha":836,"o":"m 671 63 q 557 1 624 23 q 413 -20 491 -20 q 159 78 249 -20 q 69 354 69 176 q 118 642 69 500 q 248 876 167 785 q 403 991 315 952 q 594 1030 491 1030 q 702 1017 649 1030 q 808 981 755 1005 l 763 759 q 681 828 728 804 q 580 852 635 852 q 488 831 532 852 q 409 773 444 811 q 358 698 381 741 q 317 603 334 655 q 284 475 296 537 q 273 360 273 413 q 316 209 273 262 q 438 156 359 156 q 484 161 462 156 q 521 178 505 167 l 560 376 l 420 376 l 454 544 l 766 544 l 671 63 "},"`":{"x_min":251.59375,"x_max":585.9375,"ha":836,"o":"m 444 1111 l 585 856 l 451 856 l 251 1111 l 444 1111 "},"Â·":{"x_min":276.6875,"x_max":551.359375,"ha":836,"o":"m 324 608 l 551 608 l 502 360 l 276 360 l 324 608 "},"r":{"x_min":104.4375,"x_max":832.109375,"ha":836,"o":"m 796 553 q 723 596 763 582 q 633 610 683 610 q 460 550 520 610 q 372 350 399 490 l 304 0 l 104 0 l 252 760 l 451 760 l 427 641 q 537 742 469 707 q 684 778 604 778 q 764 767 727 778 q 832 739 802 757 l 796 553 "},"Â¿":{"x_min":61,"x_max":637.890625,"ha":836,"o":"m 403 741 l 583 741 l 563 636 q 522 523 552 572 q 428 421 492 475 l 357 358 l 346 349 q 252 222 252 266 q 277 163 252 184 q 348 142 302 142 q 478 166 409 142 q 627 240 548 191 l 591 58 q 450 1 523 21 q 307 -18 377 -18 q 128 37 195 -18 q 61 184 61 93 q 94 305 61 249 q 207 428 127 361 l 278 486 l 283 491 q 387 657 369 562 l 403 741 m 600 821 l 419 821 l 456 1013 l 637 1013 l 600 821 "},"Ã½":{"x_min":-61.03125,"x_max":852.453125,"ha":836,"o":"m 373 -82 q 242 -252 297 -216 q 101 -288 187 -288 l -61 -288 l -30 -137 l 48 -137 q 141 -116 107 -137 q 216 -20 175 -96 l 242 29 l 95 759 l 297 759 l 383 284 l 642 759 l 852 759 l 373 -82 m 601 1111 l 819 1111 l 519 856 l 385 856 l 601 1111 "},"x":{"x_min":-51.546875,"x_max":832.109375,"ha":836,"o":"m 832 760 l 508 384 l 697 0 l 494 0 l 379 241 l 173 0 l -51 0 l 295 403 l 120 760 l 324 760 l 425 544 l 606 760 l 832 760 "},"Ã¨":{"x_min":52,"x_max":784,"ha":836,"o":"m 674 36 q 540 -5 609 8 q 395 -20 470 -20 q 139 60 227 -20 q 52 295 52 140 q 81 480 52 391 q 165 635 111 570 q 301 742 222 705 q 471 779 380 779 q 698 697 613 779 q 784 481 784 616 q 779 411 784 451 q 765 315 775 371 l 250 315 q 247 293 248 303 q 246 272 246 283 q 291 171 246 205 q 425 137 337 137 q 572 158 499 137 q 708 219 646 179 l 674 36 m 595 464 q 598 482 597 473 q 600 499 600 491 q 565 590 600 557 q 470 624 530 624 q 354 584 402 624 q 278 464 305 544 l 595 464 m 445 1110 l 587 856 l 452 856 l 252 1110 l 445 1110 "},"Âº":{"x_min":149.671875,"x_max":723,"ha":836,"o":"m 208 688 q 288 935 208 840 q 500 1031 369 1031 q 664 973 605 1031 q 723 815 723 916 q 642 567 723 662 q 431 473 561 473 q 266 530 325 473 q 208 688 208 587 m 580 811 q 556 891 580 862 q 492 920 533 920 q 392 854 433 920 q 352 692 352 789 q 375 612 352 641 q 439 584 398 584 q 539 649 498 584 q 580 811 580 714 m 172 405 l 638 405 l 615 290 l 149 290 l 172 405 "},"Ã˜":{"x_min":-96,"x_max":919.453125,"ha":836,"o":"m 254 240 q 292 178 266 199 q 356 158 318 158 q 493 261 441 158 q 581 602 546 365 l 254 240 m 52 200 q 44 248 47 223 q 41 299 41 273 q 74 586 41 444 q 165 831 107 727 q 303 978 218 927 q 495 1030 389 1030 q 623 1007 566 1030 q 720 941 679 985 l 825 1056 l 919 978 l 780 824 q 790 754 787 786 q 794 691 794 721 q 789 601 794 649 q 775 499 784 552 q 732 325 758 405 q 670 178 706 245 q 532 31 617 83 q 341 -20 447 -20 q 205 5 264 -20 q 108 79 146 30 l 0 -43 l -96 34 l 52 200 m 577 781 q 539 835 565 816 q 479 854 514 854 q 345 754 397 854 q 256 426 293 655 l 577 781 "},"âˆž":{"x_min":8,"x_max":828,"ha":836,"o":"m 491 426 q 551 316 524 347 q 612 286 578 286 q 677 325 652 286 q 703 429 703 365 q 680 532 703 493 q 619 571 657 571 q 548 533 581 571 q 491 426 514 496 m 343 430 q 281 542 306 514 q 223 571 256 571 q 157 531 182 571 q 132 427 132 491 q 154 324 132 363 q 214 286 177 286 q 284 321 252 286 q 343 430 315 356 m 417 563 q 495 670 448 635 q 611 705 543 705 q 769 629 710 705 q 828 427 828 553 q 766 228 828 306 q 612 151 705 151 q 507 184 553 151 q 417 290 461 217 q 332 185 380 220 q 225 151 284 151 q 69 229 131 151 q 8 427 8 307 q 66 629 8 554 q 223 705 125 705 q 335 669 286 705 q 417 563 383 634 "},"Ã·":{"x_min":45,"x_max":790,"ha":836,"o":"m 313 812 l 523 812 l 523 602 l 313 602 l 313 812 m 313 268 l 523 268 l 523 58 l 313 58 l 313 268 m 45 516 l 790 516 l 790 355 l 45 355 l 45 516 "},"h":{"x_min":40.015625,"x_max":760,"ha":836,"o":"m 747 493 l 651 0 l 453 0 l 543 462 q 548 498 546 480 q 550 534 550 516 q 530 594 550 573 q 473 615 510 615 q 377 566 417 615 q 320 426 338 518 l 238 0 l 40 0 l 245 1055 l 442 1055 l 364 645 q 453 743 396 708 q 579 778 510 778 q 713 730 666 778 q 760 597 760 683 q 756 551 760 577 q 747 493 753 525 "},".":{"x_min":236,"x_max":509.984375,"ha":836,"o":"m 283 249 l 509 249 l 462 0 l 236 0 l 283 249 "},";":{"x_min":115.28125,"x_max":572.375,"ha":836,"o":"m 254 249 l 480 249 l 444 65 l 261 -195 l 115 -195 l 218 65 l 254 249 m 345 721 l 572 721 l 523 473 l 297 473 l 345 721 "},"f":{"x_min":156.65625,"x_max":859.921875,"ha":836,"o":"m 580 810 l 569 759 l 802 759 l 773 606 l 540 606 l 422 -1 l 223 -1 l 341 606 l 156 606 l 185 759 l 370 759 l 381 811 q 472 1005 410 955 q 697 1055 535 1055 l 859 1055 l 830 902 l 674 902 q 611 883 630 902 q 580 810 591 864 "},"â€œ":{"x_min":132.25,"x_max":849.75,"ha":836,"o":"m 344 612 l 132 612 l 168 795 l 351 1055 l 497 1055 l 380 795 l 344 612 m 697 612 l 484 612 l 520 795 l 703 1055 l 849 1055 l 733 795 l 697 612 "},"A":{"x_min":-76.65625,"x_max":677,"ha":836,"o":"m 493 826 l 307 415 l 493 415 l 493 826 m 394 1012 l 677 1012 l 677 0 l 512 0 l 512 250 l 235 250 l 126 0 l -76 0 l 394 1012 "},"6":{"x_min":65,"x_max":792.21875,"ha":836,"o":"m 544 378 q 513 473 544 438 q 430 508 482 508 q 309 440 359 508 q 260 272 260 372 q 290 176 260 212 q 372 141 321 141 q 494 208 445 141 q 544 378 544 276 m 792 989 l 757 807 q 669 853 716 837 q 573 869 622 869 q 395 795 467 869 q 291 580 323 721 q 383 646 332 624 q 495 669 435 669 q 674 593 608 669 q 740 386 740 517 q 635 94 740 210 q 373 -22 531 -22 q 142 63 219 -22 q 65 318 65 148 q 106 604 65 465 q 220 846 147 743 q 381 984 287 938 q 601 1030 475 1030 q 693 1019 646 1030 q 792 989 740 1009 "},"â€˜":{"x_min":284.828125,"x_max":649.6875,"ha":836,"o":"m 497 612 l 284 612 l 320 795 l 503 1055 l 649 1055 l 533 795 l 497 612 "},"O":{"x_min":41,"x_max":794,"ha":836,"o":"m 589 691 q 561 813 589 772 q 479 854 534 854 q 405 829 439 854 q 346 759 371 805 q 317 688 331 732 q 287 582 302 645 q 257 437 267 504 q 247 319 247 370 q 274 197 247 237 q 356 158 301 158 q 430 182 396 158 q 489 252 463 206 q 519 327 504 282 q 548 427 535 371 q 578 573 568 505 q 589 691 589 640 m 41 314 q 74 589 41 450 q 166 832 108 728 q 303 978 218 927 q 494 1030 388 1030 q 717 944 640 1030 q 794 697 794 859 q 760 420 794 560 q 670 178 727 280 q 532 31 617 83 q 341 -20 447 -20 q 117 65 194 -20 q 41 314 41 151 "},"n":{"x_min":40.015625,"x_max":760,"ha":836,"o":"m 747 493 l 651 0 l 453 0 l 543 462 q 548 498 546 480 q 550 534 550 516 q 530 594 550 573 q 473 615 510 615 q 378 566 417 615 q 320 426 338 517 l 238 0 l 40 0 l 187 760 l 385 760 l 364 645 q 453 743 396 708 q 579 778 510 778 q 713 730 666 778 q 760 597 760 683 q 756 551 760 577 q 747 493 753 525 "},"3":{"x_min":-20.640625,"x_max":760,"ha":836,"o":"m 348 453 l 241 453 l 277 629 l 383 629 q 520 666 467 629 q 573 761 573 704 q 533 835 573 809 q 423 861 494 861 q 299 846 366 861 q 157 805 231 832 l 193 987 q 329 1020 264 1009 q 454 1031 395 1031 q 676 965 593 1031 q 760 791 760 899 q 695 630 760 696 q 518 545 631 565 q 654 465 609 521 q 699 320 699 410 q 588 72 699 164 q 286 -20 477 -20 q 139 -7 217 -20 q -20 30 62 5 l 15 213 q 151 166 81 182 q 294 150 221 150 q 454 196 399 150 q 509 330 509 242 q 465 419 509 385 q 348 453 421 453 "},"9":{"x_min":37.75,"x_max":765,"ha":836,"o":"m 37 19 l 72 201 q 161 155 113 171 q 257 140 208 140 q 434 213 363 140 q 539 428 506 287 q 446 362 497 384 q 335 340 394 340 q 157 415 222 340 q 92 622 92 490 q 195 914 92 798 q 457 1031 299 1031 q 688 945 611 1031 q 765 690 765 860 q 724 403 765 543 q 609 161 683 263 q 449 24 544 69 q 229 -21 355 -21 q 136 -10 184 -21 q 37 19 89 0 m 288 629 q 318 535 288 569 q 400 501 348 501 q 520 568 470 501 q 571 735 571 636 q 540 831 571 795 q 458 868 509 868 q 336 799 385 868 q 288 629 288 730 "},"l":{"x_min":158.03125,"x_max":701.484375,"ha":836,"o":"m 424 246 q 419 222 421 233 q 418 207 418 211 q 439 164 418 177 q 512 152 460 152 l 701 152 l 670 -1 l 469 -1 q 272 37 330 -1 q 215 163 215 75 q 218 202 215 179 q 227 256 221 226 l 365 902 l 158 902 l 187 1055 l 592 1055 l 424 246 "},"Â¤":{"x_min":126.234375,"x_max":758.765625,"ha":836,"o":"m 561 436 q 527 519 561 485 q 443 553 493 553 q 359 519 393 553 q 325 436 325 485 q 359 351 325 386 q 443 317 393 317 q 527 351 493 317 q 561 436 561 386 m 555 636 l 672 751 l 758 664 l 643 548 q 666 492 659 521 q 674 435 674 464 q 666 375 674 403 q 642 323 658 348 l 758 208 l 669 119 l 554 236 q 502 211 529 219 q 443 204 475 204 q 388 211 416 204 q 329 233 359 218 l 213 119 l 126 206 l 241 322 q 218 379 226 350 q 211 435 211 407 q 218 494 211 466 q 242 547 226 521 l 126 662 l 215 751 l 327 635 q 383 659 355 651 q 443 667 411 667 q 496 659 469 667 q 555 636 524 652 "},"âˆ‚":{"x_min":98,"x_max":740,"ha":836,"o":"m 562 448 q 582 576 575 515 q 589 682 589 637 q 571 789 589 750 q 523 828 554 828 q 425 778 494 828 q 317 729 356 729 q 269 749 289 729 q 250 799 250 769 q 308 879 250 842 q 451 916 366 916 q 660 806 581 916 q 740 512 740 696 q 633 132 740 282 q 365 -17 527 -17 q 173 60 248 -17 q 98 258 98 138 q 176 481 98 392 q 371 571 255 571 q 486 541 440 571 q 562 448 532 511 m 521 351 q 495 471 521 429 q 420 514 469 514 q 307 423 352 514 q 262 191 262 332 q 287 71 262 112 q 363 30 313 30 q 476 120 431 30 q 521 351 521 211 "},"4":{"x_min":12.203125,"x_max":759.546875,"ha":836,"o":"m 523 782 l 195 390 l 448 390 l 523 782 m 550 1012 l 759 1012 l 638 390 l 750 390 l 716 218 l 605 218 l 563 0 l 372 0 l 415 218 l 12 218 l 51 412 l 550 1012 "},"p":{"x_min":-24.78125,"x_max":793.0625,"ha":836,"o":"m 257 139 l 173 -289 l -24 -289 l 179 758 l 378 758 l 355 645 q 459 744 403 711 q 578 778 515 778 q 735 703 677 778 q 793 501 793 629 q 772 325 793 413 q 713 165 751 237 q 595 28 666 77 q 444 -20 523 -20 q 319 21 368 -20 q 257 139 270 63 m 408 141 q 538 237 483 141 q 593 470 593 333 q 564 576 593 538 q 486 615 536 615 q 352 520 409 615 q 296 292 296 426 q 326 181 296 221 q 408 141 357 141 "},"â€¡":{"x_min":33.234375,"x_max":777.859375,"ha":836,"o":"m 429 1012 l 602 1012 l 551 750 l 777 750 l 747 599 l 522 599 l 461 281 l 686 281 l 657 129 l 430 129 l 380 -133 l 206 -133 l 257 129 l 33 129 l 62 281 l 287 281 l 348 599 l 123 599 l 153 750 l 377 750 l 429 1012 "},"Ã ":{"x_min":32,"x_max":774,"ha":836,"o":"m 467 359 q 295 323 351 359 q 239 214 239 288 q 266 143 239 171 q 336 116 293 116 q 470 179 416 116 q 544 359 524 242 l 467 359 m 755 432 l 672 0 l 474 0 l 491 84 q 387 6 446 32 q 254 -20 328 -20 q 92 39 152 -20 q 32 199 32 98 q 137 422 32 345 q 441 499 243 499 l 572 499 l 577 532 q 578 540 578 536 q 579 552 579 544 q 544 611 579 591 q 444 632 509 632 q 318 612 388 632 q 168 554 248 593 l 200 725 q 345 764 276 751 q 474 778 413 778 q 698 726 622 778 q 774 574 774 674 q 769 512 774 548 q 755 432 764 476 m 465 1111 l 606 856 l 472 856 l 272 1111 l 465 1111 "},"Ãœ":{"x_min":31,"x_max":862.625,"ha":836,"o":"m 46 373 l 171 1012 l 370 1012 l 236 322 q 235 318 236 321 q 231 272 231 286 q 262 186 231 217 q 350 156 293 156 q 466 197 423 156 q 527 322 510 238 l 662 1012 l 862 1012 l 737 373 q 686 188 713 251 q 616 82 659 125 q 494 6 564 32 q 339 -20 424 -20 q 110 47 190 -20 q 31 238 31 114 q 34 300 31 266 q 46 373 38 334 m 613 1288 l 773 1288 l 741 1121 l 580 1121 l 613 1288 m 345 1288 l 505 1288 l 472 1121 l 311 1121 l 345 1288 "},"Ã³":{"x_min":60,"x_max":819.734375,"ha":836,"o":"m 576 463 q 545 577 576 537 q 456 618 513 618 q 316 525 372 618 q 260 294 260 433 q 292 181 260 222 q 382 140 325 140 q 520 232 464 140 q 576 463 576 325 m 60 288 q 172 643 60 507 q 467 779 285 779 q 694 697 612 779 q 777 470 777 615 q 664 115 777 251 q 370 -20 551 -20 q 142 61 224 -20 q 60 288 60 143 m 602 1111 l 819 1111 l 519 856 l 386 856 l 602 1111 "},"âˆš":{"x_min":33.0625,"x_max":796,"ha":836,"o":"m 76 454 l 33 589 l 271 672 l 387 278 l 649 1171 l 796 1171 l 796 1030 l 760 1030 l 448 -26 l 321 -26 l 173 489 l 76 454 "}}}
